<svg width="14" height="10" viewBox="0 0 14 10" fill="none" xmlns="http://www.w3.org/2000/svg">
<path fill-rule="evenodd" clip-rule="evenodd" d="M12.4544 0.302197C13.0565 0.467031 13.5327 0.952383 13.6945 1.56593C13.991 2.68315 14 5 14 5C14 5 14 7.32601 13.7035 8.43406C13.5417 9.04762 13.0655 9.53296 12.4634 9.6978C11.3761 10 7 10 7 10C7 10 2.62388 10 1.53659 9.6978C0.934531 9.53296 0.45828 9.04762 0.296534 8.43406C0 7.31685 0 5 0 5C0 5 0 2.68315 0.287548 1.57509C0.449294 0.961538 0.925546 0.476192 1.5276 0.311358C2.61489 0.00915527 6.99101 0 6.99101 0C6.99101 0 11.3671 0 12.4544 0.302197ZM9.2285 5L5.5982 7.14286V2.85714L9.2285 5Z" fill="#828282"/>
</svg>
