<svg width="16" height="20" viewBox="0 0 16 20" fill="none" xmlns="http://www.w3.org/2000/svg">
<path d="M8.11884 8.53017L10.8559 2.99688L15.3008 0L16 1.06036L11.8333 3.86807L9.52766 8.53017H8.11884ZM12.3404 5.69139L11.7717 6.84256C12.296 7.145 12.605 7.50467 12.605 7.893C12.605 8.83011 10.825 9.6055 8.47952 9.76978L7.3267 11.6764V9.79589C7.25285 9.79467 7.18081 9.78967 7.10756 9.78717L5.82979 13.8668V9.68139C3.90274 9.41256 2.521 8.71683 2.521 7.893C2.521 6.83761 4.77859 5.98133 7.56298 5.98133C7.70024 5.98133 7.82887 5.99256 7.96306 5.99628L8.58343 4.74177C8.24863 4.72186 7.91009 4.70692 7.56298 4.70692C3.38637 4.70692 0 6.15183 0 11.0791C0 16.0062 3.38637 20 7.56298 20C11.7396 20 15.126 16.0062 15.126 11.0791C15.126 8.29 14.0404 6.61856 12.3404 5.69139Z" fill="white"/>
</svg>
