<svg width="37" height="16" viewBox="0 0 37 16" fill="none" xmlns="http://www.w3.org/2000/svg">
<path d="M35.8899 10.8112L23.7798 8.73954C23.2569 6.48949 21.4128 4.76079 19.1147 4.40407L18.5642 0.288117C18.5367 0.123478 18.3991 0 18.2339 0H18.2202C18.055 0 17.9037 0.123478 17.8899 0.288117L17.3395 4.40407C15.0275 4.76079 13.1835 6.50321 12.6743 8.73954L0.56422 10.8112C0.233945 10.8661 0 11.1405 0 11.4698V11.4835C0 11.8539 0.302753 12.1421 0.660551 12.1421H3.28899C3.26147 12.293 3.24771 12.4576 3.24771 12.6223C3.24771 14.0354 4.40367 15.1879 5.8211 15.1879C7.23853 15.1879 8.3945 14.0354 8.3945 12.6223C8.3945 12.4576 8.38073 12.293 8.35321 12.1421H12.9633C13.8028 14.2412 15.8532 15.7229 18.2615 15.7229C20.6697 15.7229 22.7202 14.2412 23.5596 12.1421H28.1697C28.1422 12.293 28.1284 12.4576 28.1284 12.6223C28.1284 14.0354 29.2844 15.1879 30.7018 15.1879C32.1193 15.1879 33.2752 14.0354 33.2752 12.6223C33.2752 12.4576 33.2615 12.293 33.2339 12.1421H35.8624C36.2339 12.1421 36.5229 11.8402 36.5229 11.4835V11.4698C36.4541 11.1405 36.2064 10.8661 35.8899 10.8112ZM15.1927 9.13742L15.9083 7.34012H20.5046L21.2202 9.13742H15.1927Z" fill="white"/>
</svg>
