<svg width="54" height="52" viewBox="0 0 54 52" fill="none" xmlns="http://www.w3.org/2000/svg">
<path d="M0 26.5315C0 22.4133 3.3384 19.075 7.45652 19.075H11.2022V38.2787H7.45652C3.33839 38.2787 0 34.9403 0 30.8222V26.5315Z" fill="#FCB009"/>
<path d="M53.3439 26.5315C53.3439 22.4133 50.0055 19.075 45.8874 19.075H42.1417V38.2787H45.8874C50.0055 38.2787 53.3439 34.9403 53.3439 30.8222V26.5315Z" fill="#FCB009"/>
<path d="M21.3375 48.4138C21.3375 46.6461 22.7705 45.2131 24.5382 45.2131H28.8057C30.5733 45.2131 32.0063 46.6461 32.0063 48.4138C32.0063 50.1814 30.5733 51.6144 28.8057 51.6144H24.5382C22.7705 51.6144 21.3375 50.1814 21.3375 48.4138Z" fill="#FCB009"/>
<path d="M19.7372 47.6135H18.1368C13.5268 47.6135 9.69727 44.2719 8.93832 39.8787H7.31763C8.092 45.1596 12.641 49.2138 18.1368 49.2138H19.7372V47.6135Z" fill="#FCB009"/>
<path d="M53.3439 26.5315C53.3439 22.4133 50.0055 19.075 45.8874 19.075H42.1417V38.2787H45.8874C50.0055 38.2787 53.3439 34.9403 53.3439 30.8222V26.5315Z" fill="#FCB009"/>
<path d="M9.06847 29.21V20.1415C9.06847 10.4194 16.9498 2.53809 26.6719 2.53809V2.53809C36.3941 2.53809 44.2754 10.4194 44.2754 20.1415V29.21" stroke="#FCB009" stroke-width="4.26087"/>
</svg>
