<svg width="171" height="51" viewBox="0 0 171 51" fill="none" xmlns="http://www.w3.org/2000/svg">
<g clip-path="url(#clip0_6_2)">
<path d="M64.3895 14.7403C64.3848 14.781 64.3653 14.8186 64.3347 14.8455C64.3042 14.8724 64.2648 14.8867 64.2243 14.8857H60.0253L58.1915 26.6988C58.1889 26.741 58.1702 26.7805 58.1394 26.809C58.1086 26.8375 58.0681 26.8527 58.0263 26.8515H57.1288C57.0182 26.8515 56.9637 26.7759 56.9852 26.661L58.819 14.8814H54.6545C54.5454 14.8814 54.4894 14.8058 54.5109 14.6909L54.6387 13.891C54.6416 13.849 54.6604 13.8097 54.6912 13.7813C54.7219 13.7528 54.7622 13.7375 54.8039 13.7383H64.3737C64.4842 13.7383 64.5388 13.8154 64.5173 13.9288L64.3895 14.7403Z" fill="#EEEEEE"/>
<path d="M65.7264 26.7062C65.7235 26.7483 65.7047 26.7875 65.6739 26.816C65.6432 26.8444 65.6029 26.8598 65.5612 26.8589H64.6996C64.5891 26.8589 64.5345 26.7818 64.556 26.6669L65.7666 18.856H64.9409C64.9176 18.8572 64.8944 18.8526 64.8733 18.8427C64.8522 18.8328 64.8337 18.8178 64.8196 18.799C64.8055 18.7803 64.7961 18.7583 64.7922 18.7351C64.7883 18.7118 64.79 18.6879 64.7973 18.6655L64.9265 17.8831C64.9309 17.8423 64.9503 17.8045 64.9809 17.7776C65.0115 17.7506 65.0511 17.7364 65.0917 17.7377H66.9585C67.0677 17.7377 67.1237 17.8133 67.1021 17.9282L65.7264 26.7062ZM67.7067 13.9973C67.7067 14.6444 67.3951 14.9688 66.8637 14.9688C66.387 14.9688 66.1127 14.7012 66.1127 14.2416C66.1127 13.6323 66.4602 13.2891 66.9743 13.2891C67.4511 13.292 67.7067 13.5581 67.7067 13.9973Z" fill="#EEEEEE"/>
<path d="M74.0483 27.4686C74.1282 26.8527 74.2697 26.2465 74.4705 25.6595C74.5437 25.4108 74.3972 25.4297 74.2866 25.5257C73.5356 26.4593 72.5275 27.0512 71.3169 27.0512C69.2648 27.0512 68.1461 25.6987 68.1461 23.449C68.1461 20.9913 69.3567 17.5432 72.931 17.5432C73.7559 17.5298 74.5724 17.7126 75.3148 18.0769L76.4881 18.6295C76.5292 18.6438 76.5633 18.6735 76.5836 18.7124C76.6038 18.7513 76.6087 18.7965 76.5972 18.8389L74.7304 30.7291C74.7271 30.771 74.7082 30.8101 74.6776 30.8384C74.6469 30.8668 74.6067 30.8823 74.5652 30.8818H73.7036C73.593 30.8818 73.5385 30.8047 73.56 30.6898L74.0483 27.4686ZM74.6543 19.0847C74.1028 18.8244 73.5022 18.688 72.8937 18.6848C70.2542 18.6848 69.338 21.5613 69.338 23.3908C69.338 24.9731 70.0891 25.9067 71.4634 25.9067C73.3302 25.9067 74.581 24.1921 74.9286 21.906L75.3148 19.4337L74.6543 19.0847Z" fill="#EEEEEE"/>
<path d="M84.1193 25.5967C84.1006 25.4062 84.0087 25.3873 83.8436 25.5385C83.0006 26.5492 81.9552 27.0437 80.7087 27.0437C78.6623 27.051 77.6571 25.5967 78.0276 23.3149L78.8892 17.8847C78.8921 17.8426 78.9109 17.8033 78.9417 17.7749C78.9724 17.7465 79.0127 17.7311 79.0543 17.732H79.916C80.0251 17.732 80.0797 17.809 80.0596 17.9225L79.2152 23.3033C78.9581 24.9612 79.5814 25.9137 80.9025 25.9137C82.7536 25.9137 84.0619 24.4667 84.4395 22.0468L85.1001 17.8919C85.1048 17.8512 85.1243 17.8137 85.1548 17.7868C85.1854 17.7599 85.2248 17.7455 85.2653 17.7465H86.1269C86.2375 17.7465 86.292 17.8221 86.2705 17.937L84.9134 26.7208C84.9088 26.7616 84.8893 26.7991 84.8587 26.826C84.8282 26.8529 84.7888 26.8673 84.7483 26.8663H84.1624C84.0518 26.8663 83.9972 26.8096 84.0188 26.6947L84.1193 25.5967Z" fill="#EEEEEE"/>
<path d="M88.5121 23.3731C88.4762 24.9539 89.2818 25.9079 90.8098 25.9079C91.4168 25.9053 92.0208 25.8217 92.6063 25.6592L93.2295 25.4876C93.3387 25.4498 93.3947 25.508 93.4119 25.6214L93.5038 26.4024C93.5088 26.4235 93.5094 26.4454 93.5056 26.4667C93.5018 26.488 93.4936 26.5083 93.4815 26.5263C93.4695 26.5442 93.4539 26.5594 93.4357 26.5709C93.4175 26.5823 93.3972 26.5898 93.376 26.5929L92.747 26.7601C92.1038 26.9513 91.4371 27.0492 90.7667 27.051C88.5667 27.051 87.3202 25.6592 87.3202 23.3542C87.3202 20.9721 88.604 17.5371 92.0692 17.5371C93.9576 17.5371 95.0576 18.4329 95.0576 19.9192C95.0576 21.3473 94.1586 22.4337 92.0692 22.7769L88.5121 23.3731ZM91.94 21.7734C93.4248 21.5247 93.8657 20.7554 93.8657 20.0777C93.8657 19.2052 93.1879 18.686 92.0146 18.686C90.2727 18.686 89.0075 19.9047 88.5681 22.3217L91.94 21.7734Z" fill="#EEEEEE"/>
<path d="M100.941 17.7335C101.052 17.7335 101.106 17.8106 101.085 17.9241L100.955 18.705C100.951 18.7457 100.931 18.7832 100.901 18.8101C100.87 18.8371 100.831 18.8514 100.79 18.8504H98.7238L97.8248 24.6428C97.697 25.463 97.9684 25.9008 98.5759 25.9008C98.7494 25.8941 98.9218 25.8688 99.09 25.8251C99.1114 25.814 99.1351 25.8082 99.1592 25.8082C99.1833 25.8082 99.207 25.814 99.2284 25.825C99.2499 25.8361 99.2684 25.8522 99.2825 25.8719C99.2967 25.8916 99.306 25.9145 99.3097 25.9386L99.5107 26.625C99.524 26.6679 99.5221 26.7142 99.5054 26.7559C99.4886 26.7976 99.458 26.832 99.4188 26.8533C99.1096 26.977 98.7805 27.0415 98.4481 27.0438C97.0723 27.0438 96.3945 26.148 96.6329 24.6239L97.5319 18.8504H96.7076C96.597 18.8504 96.5424 18.7748 96.564 18.6599L96.6932 17.879C96.6979 17.8382 96.7174 17.8007 96.7479 17.7738C96.7785 17.7469 96.8179 17.7325 96.8584 17.7335H97.72L98.0675 15.4285C98.0862 15.3325 98.1235 15.2758 98.2111 15.2569L99.1474 14.9515C99.2566 14.9137 99.3298 14.9908 99.3111 15.1231L98.9076 17.7408L100.941 17.7335Z" fill="#EEEEEE"/>
<path d="M102.537 23.3746C102.499 24.9554 103.306 25.9079 104.834 25.9079C105.442 25.9058 106.046 25.8227 106.632 25.6607L107.255 25.4891C107.365 25.4513 107.419 25.508 107.438 25.6229L107.53 26.4038C107.534 26.4249 107.535 26.4467 107.531 26.468C107.527 26.4892 107.519 26.5094 107.507 26.5273C107.495 26.5452 107.479 26.5604 107.461 26.5719C107.443 26.5834 107.423 26.5911 107.402 26.5943L106.771 26.7601C106.131 26.9506 105.466 27.0485 104.798 27.051C102.598 27.051 101.352 25.6607 101.352 23.3542C101.352 20.9736 102.636 17.5371 106.101 17.5371C107.989 17.5371 109.088 18.4329 109.088 19.9192C109.088 21.3488 108.19 22.4351 106.099 22.7783L102.537 23.3746ZM105.964 21.7749C107.449 21.5276 107.889 20.7656 107.89 20.0792C107.89 19.2066 107.211 18.6889 106.038 18.6889C104.297 18.6889 103.032 19.9076 102.591 22.3246L105.964 21.7749Z" fill="#EEEEEE"/>
<path d="M118.797 21.1846C118.797 23.6235 117.421 27.0716 113.608 27.0716C111.117 27.0716 109.681 25.5853 109.681 23.1843C109.681 20.712 111.094 17.2959 114.888 17.2974C117.367 17.2974 118.797 18.7836 118.797 21.1846ZM112.527 22.9792C112.527 23.894 112.949 24.4088 113.7 24.4088C115.313 24.4088 115.955 22.5022 115.955 21.3984C115.955 20.4837 115.551 19.9878 114.806 19.9878C113.127 19.9834 112.527 21.9074 112.527 22.9792Z" fill="#D9201D"/>
<path d="M121.456 16.5803C121.86 14.1415 123.467 12.789 125.819 12.789C126.321 12.7816 126.819 12.8719 127.287 13.0551L127.689 13.1889C127.722 13.1958 127.754 13.211 127.78 13.2331C127.806 13.2553 127.827 13.2837 127.84 13.3158C127.853 13.348 127.857 13.3828 127.854 13.4173C127.85 13.4517 127.838 13.4847 127.818 13.5132L126.883 15.5332C126.874 15.5643 126.857 15.5929 126.836 15.617C126.814 15.641 126.787 15.6601 126.758 15.6727C126.728 15.6853 126.696 15.6911 126.664 15.6899C126.632 15.6887 126.6 15.6804 126.572 15.6656L126.333 15.5899C126.141 15.5104 125.935 15.4713 125.727 15.475C125.031 15.475 124.464 16.0466 124.334 16.8086L124.206 17.5139H126.26C126.424 17.5139 126.498 17.6099 126.48 17.7815L126.111 19.9251C126.11 19.9575 126.102 19.9894 126.089 20.0187C126.075 20.0481 126.056 20.0743 126.032 20.0957C126.008 20.1171 125.98 20.1333 125.949 20.1432C125.919 20.1532 125.887 20.1567 125.855 20.1534H123.783L122.664 26.6322C122.663 26.6647 122.656 26.6966 122.642 26.7259C122.628 26.7553 122.609 26.7815 122.585 26.8029C122.56 26.8243 122.532 26.8405 122.502 26.8504C122.471 26.8603 122.439 26.8638 122.407 26.8606H119.966C119.801 26.8606 119.727 26.7646 119.745 26.5944L120.846 20.1534H119.928C119.763 20.1534 119.69 20.0589 119.709 19.8873L120.058 17.7335C120.059 17.7011 120.066 17.6692 120.08 17.6398C120.094 17.6105 120.113 17.5843 120.137 17.5629C120.161 17.5415 120.19 17.5253 120.22 17.5154C120.251 17.5055 120.283 17.502 120.315 17.5052H121.286L121.456 16.5803Z" fill="#D9201D"/>
<path d="M131.849 26.8432C131.298 26.9885 130.731 27.0656 130.162 27.073C127.541 27.073 126.165 25.5853 126.165 23.2046C126.165 20.6509 127.522 17.2974 131.318 17.2974C133.426 17.2974 134.654 18.3648 134.654 20.0983C134.654 21.5657 134.14 22.8236 131.391 23.1857L128.934 23.5086C128.988 24.0234 129.356 24.5004 130.235 24.5004C130.735 24.5012 131.233 24.4436 131.72 24.3288L132.784 24.0816C132.949 24.0438 133.04 24.1194 133.058 24.291L133.242 26.2717C133.249 26.3044 133.249 26.3381 133.242 26.3708C133.236 26.4036 133.222 26.4345 133.203 26.4618C133.184 26.4891 133.16 26.5122 133.132 26.5295C133.104 26.5468 133.072 26.5581 133.04 26.5626L131.849 26.8432ZM131.153 21.2995C131.703 21.2035 131.941 20.8996 131.941 20.5186C131.941 20.0823 131.721 19.87 131.17 19.87C130.291 19.87 129.538 20.3063 129.08 21.5657L131.153 21.2995Z" fill="#D9201D"/>
<path d="M141.693 19.7561C141.692 19.7886 141.685 19.8205 141.671 19.8498C141.657 19.8792 141.638 19.9054 141.614 19.9268C141.589 19.9482 141.561 19.9643 141.531 19.9743C141.5 19.9842 141.468 19.9876 141.436 19.9844C139.401 20.0601 138.594 21.2424 137.935 25.0744L137.684 26.6348C137.682 26.6672 137.675 26.699 137.661 26.7283C137.647 26.7575 137.628 26.7836 137.604 26.805C137.58 26.8263 137.552 26.8425 137.521 26.8525C137.491 26.8625 137.459 26.8661 137.427 26.8632H134.985C134.82 26.8632 134.747 26.7672 134.766 26.5956L136.248 17.7434C136.249 17.711 136.256 17.6791 136.27 17.6497C136.284 17.6204 136.303 17.5942 136.327 17.5728C136.351 17.5514 136.38 17.5352 136.41 17.5253C136.441 17.5153 136.473 17.5119 136.505 17.5151H137.789C137.85 17.5126 137.911 17.5297 137.962 17.5638C138.014 17.598 138.053 17.6475 138.076 17.7056L138.425 18.4487C138.534 18.677 138.607 18.7527 138.864 18.5054C139.799 17.6489 140.569 17.342 141.834 17.3057C142.018 17.3057 142.091 17.4002 142.054 17.5718L141.693 19.7561Z" fill="#D9201D"/>
<path d="M149.061 17.5082C149.227 17.5082 149.3 17.6042 149.283 17.7758L148.915 19.9281C148.914 19.9606 148.906 19.9925 148.893 20.0218C148.879 20.0512 148.86 20.0774 148.835 20.0988C148.811 20.1202 148.783 20.1363 148.753 20.1463C148.722 20.1562 148.69 20.1596 148.658 20.1564H146.587L145.981 23.6249C145.891 24.1208 146.019 24.4058 146.33 24.4058C146.492 24.4115 146.654 24.3858 146.807 24.3302C146.834 24.3102 146.867 24.2976 146.9 24.2937C146.934 24.2898 146.968 24.2948 146.999 24.308C147.031 24.3213 147.058 24.3425 147.079 24.3695C147.1 24.3966 147.113 24.4286 147.119 24.4626L147.669 26.3109C147.69 26.3716 147.689 26.4382 147.665 26.498C147.641 26.5577 147.596 26.6066 147.539 26.6352C147.025 26.9102 146.454 27.0596 145.872 27.0715C143.745 27.0715 142.7 25.7947 143.067 23.6234L143.653 20.155H142.737C142.572 20.155 142.499 20.0605 142.517 19.8889L142.866 17.7351C142.867 17.7027 142.875 17.6708 142.888 17.6415C142.902 17.6121 142.921 17.5859 142.945 17.5645C142.969 17.5431 142.997 17.5269 143.028 17.5169C143.058 17.507 143.09 17.5035 143.122 17.5067H144.094L144.442 15.4111C144.448 15.3512 144.472 15.2947 144.512 15.25C144.552 15.2053 144.605 15.1746 144.663 15.1625L147.265 14.3059C147.449 14.2492 147.552 14.3437 147.522 14.5342L147.009 17.5067L149.061 17.5082Z" fill="#D9201D"/>
<path d="M155.478 26.0328C155.405 25.5761 155.334 25.4991 154.855 26.0139C154.555 26.3627 154.182 26.6395 153.764 26.8242C153.345 27.0088 152.891 27.0967 152.435 27.0813C150.344 27.0813 149.116 25.7463 149.116 23.4791C149.116 20.8308 150.638 17.3057 154.708 17.3057C155.345 17.3187 155.978 17.402 156.596 17.5543L158.594 18.011C158.738 18.0503 158.796 18.1448 158.778 18.3164L157.366 26.6421C157.365 26.6746 157.358 26.7066 157.344 26.736C157.33 26.7654 157.311 26.7917 157.287 26.8132C157.263 26.8347 157.234 26.851 157.204 26.8611C157.173 26.8712 157.141 26.8749 157.109 26.8719H155.807C155.775 26.8749 155.743 26.8712 155.712 26.8611C155.682 26.851 155.654 26.8347 155.63 26.8131C155.606 26.7916 155.586 26.7653 155.573 26.7359C155.559 26.7065 155.552 26.6746 155.551 26.6421L155.478 26.0328ZM155.277 20.0877C155.05 20.0204 154.815 19.9886 154.579 19.9932C152.728 19.9932 151.958 22.1077 151.958 23.2129C151.958 23.9561 152.362 24.4127 153.021 24.4127C154.158 24.4127 155.031 23.0224 155.44 20.8701L155.57 20.1648L155.277 20.0877Z" fill="#D9201D"/>
<path d="M161.821 23.0549C160.372 22.6724 159.675 21.9874 159.675 20.8051C159.675 19.0905 160.739 17.3003 163.617 17.3003C164.447 17.3174 165.271 17.4326 166.074 17.6435L166.991 17.8907C167.025 17.8929 167.057 17.9042 167.086 17.9235C167.114 17.9428 167.136 17.9695 167.151 18.0006C167.166 18.0318 167.172 18.0663 167.169 18.1007C167.166 18.1351 167.154 18.168 167.134 18.1961L166.261 20.1769C166.251 20.2077 166.234 20.236 166.213 20.2604C166.191 20.2848 166.166 20.3046 166.137 20.3188C166.108 20.333 166.076 20.3413 166.044 20.3431C166.012 20.3449 165.98 20.3403 165.949 20.3295L165.125 20.1012C164.603 19.9685 164.068 19.8919 163.53 19.8729C162.869 19.8729 162.484 20.0823 162.484 20.4444C162.484 20.5899 162.595 20.7484 162.852 20.8255L164.354 21.2065C165.803 21.5875 166.535 22.3306 166.535 23.5886C166.535 25.1505 165.638 27.0788 162.612 27.0788C161.654 27.084 160.699 26.9623 159.772 26.7167L158.794 26.4695C158.628 26.4113 158.574 26.2979 158.65 26.1452L159.566 24.2212C159.586 24.1625 159.629 24.1144 159.684 24.0871C159.739 24.0599 159.802 24.0558 159.861 24.0758L160.579 24.2663C161.276 24.4288 161.988 24.518 162.704 24.5324C163.365 24.5324 163.749 24.3041 163.749 23.8853C163.749 23.6758 163.676 23.5231 163.31 23.449L161.821 23.0549Z" fill="#D9201D"/>
<path d="M168.353 27.0742C167.83 27.0739 167.317 27.231 166.882 27.5255C166.446 27.82 166.106 28.2387 165.906 28.7287C165.705 29.2186 165.653 29.7579 165.755 30.2782C165.857 30.7985 166.109 31.2764 166.479 31.6516C166.849 32.0268 167.321 32.2824 167.835 32.386C168.348 32.4895 168.881 32.4365 169.365 32.2336C169.849 32.0307 170.263 31.687 170.554 31.2459C170.845 30.8049 171 30.2864 171 29.7559C171 29.0449 170.721 28.3631 170.225 27.8602C169.729 27.3573 169.055 27.0746 168.353 27.0742ZM168.353 32.0915C167.897 32.0912 167.452 31.954 167.072 31.6971C166.693 31.4403 166.398 31.0755 166.224 30.6487C166.049 30.2219 166.004 29.7523 166.093 29.2994C166.182 28.8464 166.402 28.4304 166.725 28.1039C167.047 27.7774 167.458 27.5551 167.905 27.4651C168.353 27.3751 168.816 27.4214 169.238 27.5983C169.659 27.7751 170.019 28.0744 170.272 28.4585C170.526 28.8425 170.661 29.294 170.661 29.7559C170.661 30.0629 170.601 30.3668 170.485 30.6504C170.369 30.9339 170.199 31.1915 169.985 31.4084C169.77 31.6253 169.516 31.7973 169.235 31.9145C168.955 32.0317 168.655 32.0919 168.352 32.0915H168.353Z" fill="#D9201D"/>
<path d="M167.302 28.3499C167.61 28.3077 167.921 28.2878 168.231 28.2902C168.671 28.2902 168.987 28.3513 169.204 28.5142C169.298 28.5892 169.374 28.686 169.424 28.7966C169.473 28.9072 169.497 29.0283 169.491 29.1497C169.486 29.3026 169.437 29.4508 169.35 29.5758C169.263 29.7009 169.142 29.7975 169.001 29.8536V29.8667C169.188 29.9525 169.288 30.1386 169.367 30.3888C169.452 30.6869 169.547 31.1159 169.601 31.2221H168.817C168.729 31.0048 168.661 30.7793 168.616 30.5487C168.54 30.2026 168.434 30.1299 168.195 30.1299H168.071V31.2221H167.308L167.302 28.3499ZM168.066 29.5685H168.272C168.559 29.5685 168.728 29.4231 168.728 29.2093C168.728 28.9956 168.585 28.869 168.332 28.869C168.245 28.8637 168.158 28.8695 168.072 28.8865L168.066 29.5685Z" fill="#D9201D"/>
<path d="M13.114 28.197C13.1709 28.2849 13.2444 28.3606 13.3302 28.4197C13.416 28.4788 13.5125 28.5203 13.6141 28.5416C13.7158 28.5629 13.8205 28.5638 13.9225 28.5441C14.0244 28.5244 14.1216 28.4845 14.2083 28.4268L17.5773 26.1887C17.6723 26.1353 17.7555 26.0627 17.8216 25.9754C17.8877 25.8881 17.9353 25.7879 17.9616 25.6811C17.9878 25.5743 17.992 25.4632 17.9739 25.3547C17.9559 25.2462 17.916 25.1426 17.8567 25.0504C17.7973 24.9582 17.7199 24.8794 17.6292 24.8188C17.5385 24.7583 17.4364 24.7173 17.3294 24.6984C17.2223 24.6795 17.1126 24.6832 17.007 24.7091C16.9014 24.7351 16.8022 24.7828 16.7156 24.8493L13.3467 27.0874C13.2594 27.1447 13.1841 27.2189 13.1251 27.3057C13.0662 27.3926 13.0247 27.4903 13.0031 27.5934C12.9815 27.6964 12.9802 27.8028 12.9992 27.9064C13.0182 28.01 13.0572 28.1087 13.114 28.197Z" fill="#D9201D"/>
<path d="M15.5266 33.6737C15.5835 33.7616 15.6569 33.8372 15.7428 33.8964C15.8286 33.9555 15.925 33.9969 16.0267 34.0182C16.1283 34.0396 16.2331 34.0404 16.335 34.0207C16.437 34.001 16.5341 33.9612 16.6208 33.9035L23.3085 29.4577C23.4035 29.4044 23.4867 29.3318 23.5528 29.2445C23.6189 29.1571 23.6666 29.057 23.6928 28.9502C23.719 28.8434 23.7232 28.7323 23.7052 28.6238C23.6871 28.5153 23.6472 28.4117 23.5879 28.3195C23.5286 28.2273 23.4512 28.1484 23.3604 28.0879C23.2697 28.0273 23.1677 27.9863 23.0606 27.9674C22.9536 27.9486 22.8438 27.9522 22.7382 27.9782C22.6326 28.0041 22.5334 28.0519 22.4469 28.1183L15.7606 32.5641C15.6732 32.6213 15.5978 32.6954 15.5387 32.7821C15.4796 32.8689 15.438 32.9666 15.4163 33.0697C15.3945 33.1728 15.3931 33.2792 15.412 33.3828C15.4309 33.4865 15.4699 33.5853 15.5266 33.6737Z" fill="#D9201D"/>
<path d="M39.2543 6.94381L9.16628 0.1538C8.21321 -0.0525106 7.22798 -0.0538771 6.27436 0.149791C5.32073 0.353458 4.41996 0.757622 3.63032 1.33613L1.45902 2.78022C0.564366 3.37357 0.00718023 4.48463 0 5.59861C0.0465965 6.13224 0.209482 6.64876 0.476923 7.11096C0.744363 7.57317 1.1097 7.96955 1.54662 8.27157L23.7048 21.1666L29.2752 17.4626C29.362 17.4035 29.4596 17.3624 29.5622 17.3417C29.6648 17.321 29.7704 17.3211 29.873 17.3421C29.9756 17.363 30.073 17.4043 30.1597 17.4636C30.2464 17.523 30.3206 17.5991 30.378 17.6876C30.4355 17.7762 30.475 17.8754 30.4943 17.9795C30.5136 18.0837 30.5124 18.1906 30.4906 18.2943C30.4689 18.3979 30.427 18.4961 30.3675 18.5833C30.3081 18.6704 30.2321 18.7448 30.144 18.802L24.5722 22.506L27.4443 48.2205C27.544 48.7466 27.7576 49.2438 28.0697 49.6763C28.3818 50.1088 28.7847 50.4659 29.2494 50.7219C30.2618 51.1581 31.491 51.0825 32.3843 50.4877L34.5556 49.0436C35.3938 48.54 36.1183 47.8637 36.6821 47.0586C37.2458 46.2534 37.6363 45.3373 37.8283 44.3696L43.64 13.7135C43.9205 12.2292 43.6196 10.6927 42.801 9.42915C41.9824 8.16562 40.7104 7.27428 39.2543 6.94381Z" fill="url(#paint0_linear_6_2)"/>
<path d="M29.2508 50.7221C30.2632 51.1584 31.4924 51.0828 32.3856 50.488L34.5569 49.0439C35.3952 48.5403 36.1197 47.864 36.6835 47.0588C37.2472 46.2537 37.6377 45.3376 37.8297 44.3699L43.6414 13.7137C43.9218 12.2293 43.6207 10.6926 42.8018 9.429C41.983 8.16543 40.7106 7.27423 39.2543 6.94408C37.5181 6.55325 35.7183 6.55446 33.9827 6.94764C32.2471 7.34082 30.6183 8.11631 29.2121 9.21901C27.8058 10.3217 26.6567 11.7245 25.8463 13.3278C25.036 14.931 24.5843 16.6954 24.5233 18.4954C24.496 19.3185 24.4931 20.0427 24.5018 20.6405L29.2809 17.4629C29.3677 17.4038 29.4653 17.3627 29.5679 17.342C29.6705 17.3213 29.7761 17.3214 29.8787 17.3424C29.9812 17.3633 30.0787 17.4046 30.1654 17.4639C30.2521 17.5232 30.3263 17.5994 30.3837 17.6879C30.4411 17.7765 30.4807 17.8757 30.5 17.9798C30.5193 18.0839 30.5181 18.1909 30.4963 18.2945C30.4746 18.3982 30.4327 18.4964 30.3732 18.5835C30.3137 18.6707 30.2378 18.745 30.1497 18.8022L24.5779 22.5063L27.45 48.2208C27.5492 48.7465 27.7621 49.2434 28.0735 49.6759C28.3848 50.1084 28.7869 50.4657 29.2508 50.7221Z" fill="url(#paint1_linear_6_2)"/>
<path d="M20.3588 26.2658C20.4157 26.3537 20.4892 26.4293 20.575 26.4884C20.6608 26.5476 20.7573 26.589 20.8589 26.6103C20.9606 26.6317 21.0653 26.6325 21.1673 26.6128C21.2692 26.5931 21.3664 26.5533 21.4531 26.4955L29.7362 20.9896C29.8957 20.8672 30.0034 20.6882 30.0377 20.4885C30.072 20.2889 30.0304 20.0835 29.9211 19.9137C29.8119 19.7439 29.6432 19.6224 29.449 19.5735C29.2549 19.5246 29.0496 19.552 28.8746 19.6503L20.5872 25.1605C20.4128 25.2769 20.2909 25.4584 20.2481 25.6655C20.2053 25.8725 20.2451 26.0883 20.3588 26.2658Z" fill="url(#paint2_linear_6_2)"/>
<path d="M10.8665 24.3037C10.9684 24.3254 11.0736 24.3265 11.1759 24.3067C11.2782 24.287 11.3756 24.2469 11.4625 24.1888L16.0506 21.0883C16.2101 20.9659 16.3178 20.7868 16.3521 20.5872C16.3865 20.3875 16.3448 20.1821 16.2356 20.0124C16.1264 19.8426 15.9577 19.721 15.7635 19.6721C15.5693 19.6232 15.364 19.6507 15.189 19.7489L10.5937 22.848C10.4629 22.9349 10.3605 23.0591 10.2995 23.205C10.2384 23.3508 10.2214 23.5117 10.2506 23.6674C10.2798 23.823 10.3539 23.9664 10.4635 24.0794C10.5731 24.1924 10.7134 24.2699 10.8665 24.3022V24.3037Z" fill="#970000"/>
<path d="M9.55828 27.2897L8.5631 27.9514C8.40365 28.0738 8.29592 28.2528 8.2616 28.4525C8.22729 28.6521 8.26893 28.8575 8.37816 29.0273C8.48738 29.1971 8.65607 29.3187 8.85026 29.3675C9.04445 29.4164 9.24971 29.389 9.42472 29.2907L10.4199 28.6276C10.5828 28.5067 10.6938 28.3271 10.73 28.1258C10.7662 27.9246 10.7249 27.7169 10.6146 27.5455C10.5042 27.3742 10.3332 27.2522 10.1367 27.2046C9.94027 27.157 9.73326 27.1874 9.55828 27.2897Z" fill="#970000"/>
<path opacity="0.6" d="M39.2543 6.94381L9.16628 0.153801C8.21321 -0.0525106 7.22798 -0.0538772 6.27436 0.149791C5.32073 0.353459 4.41996 0.757622 3.63032 1.33613L1.45902 2.78022C0.564366 3.37357 0.00718023 4.48463 0 5.59861C0.0465965 6.13224 0.209482 6.64876 0.476923 7.11096C0.744363 7.57317 1.1097 7.96956 1.54662 8.27157C4.29052 9.86694 7.48617 10.4768 10.6152 10.0022C19.2315 8.69331 37.3386 7.40773 42.7683 18.3119L43.64 13.7135C43.9205 12.2292 43.6196 10.6927 42.801 9.42915C41.9824 8.16562 40.7104 7.27428 39.2543 6.94381Z" fill="#D9201D"/>
</g>
<defs>
<linearGradient id="paint0_linear_6_2" x1="0.00143605" y1="25.4989" x2="43.7477" y2="25.4989" gradientUnits="userSpaceOnUse">
<stop stop-color="#D9201D"/>
<stop offset="1" stop-color="#970000"/>
</linearGradient>
<linearGradient id="paint1_linear_6_2" x1="34.1204" y1="6.6445" x2="34.1204" y2="50.9984" gradientUnits="userSpaceOnUse">
<stop stop-color="#EEC02D"/>
<stop offset="0.4" stop-color="#E27E1E"/>
<stop offset="1" stop-color="#D9201D"/>
</linearGradient>
<linearGradient id="paint2_linear_6_2" x1="20.2325" y1="23.0707" x2="30.0967" y2="23.0707" gradientUnits="userSpaceOnUse">
<stop stop-color="#D9201D"/>
<stop offset="0.47" stop-color="#DE7B26"/>
<stop offset="0.98" stop-color="#E28B26"/>
</linearGradient>
<clipPath id="clip0_6_2">
<rect width="171" height="51" fill="white"/>
</clipPath>
</defs>
</svg>
