<svg width="29" height="29" viewBox="0 0 29 29" fill="none" xmlns="http://www.w3.org/2000/svg">
<path d="M24.907 0H3.55814C1.59583 0 0 1.59583 0 3.55814V24.907C0 26.8693 1.59583 28.4651 3.55814 28.4651H24.907C26.8693 28.4651 28.4651 26.8693 28.4651 24.907V3.55814C28.4651 1.59583 26.8693 0 24.907 0Z" fill="#FF722E"/>
<path d="M22.3333 14.0506C22.3333 9.42002 18.6027 5.66669 14 5.66669C9.39718 5.66669 5.66663 9.42002 5.66663 14.0506C5.66663 18.2361 8.71329 21.7045 12.6977 22.3334V16.4745H10.5822V14.05H12.6977V12.2034C12.6977 10.1022 13.9416 8.94113 15.8455 8.94113C16.7566 8.94113 17.7111 9.10502 17.7111 9.10502V11.1684H16.6594C15.6244 11.1684 15.3022 11.815 15.3022 12.4784V14.0506H17.6133L17.2438 16.4739H15.3022V22.3334C19.2866 21.7045 22.3333 18.2361 22.3333 14.0506Z" fill="white"/>
</svg>
