<svg width="10" height="12" viewBox="0 0 10 12" fill="none" xmlns="http://www.w3.org/2000/svg">
<path d="M4.00037 1.38167C4.59981 1.23459 5.22507 1.25032 5.81711 1.4274C6.40914 1.60447 6.94842 1.93703 7.38401 2.39368C7.81961 2.85032 8.13714 3.41599 8.30664 4.03726C8.47613 4.65853 8.49199 5.3149 8.35271 5.94439C8.33384 6.02554 8.33044 6.1098 8.3427 6.19234C8.35497 6.27487 8.38265 6.35405 8.42417 6.42531C8.46568 6.49657 8.52021 6.55851 8.58461 6.60757C8.64901 6.65663 8.72201 6.69184 8.79942 6.71118C8.84551 6.71741 8.89217 6.71741 8.93826 6.71118C9.07615 6.7154 9.21127 6.6699 9.3211 6.58227C9.43093 6.49464 9.50886 6.37016 9.54191 6.22956C9.72996 5.38958 9.71067 4.51312 9.48588 3.68316C9.26108 2.85319 8.83822 2.09719 8.25733 1.48674C7.67643 0.876289 6.95673 0.431584 6.16637 0.194734C5.376 -0.0421173 4.54113 -0.063276 3.7408 0.133261C3.5807 0.171917 3.44179 0.275756 3.35462 0.421934C3.26745 0.568112 3.23916 0.744655 3.27599 0.912725C3.31281 1.0808 3.41172 1.22663 3.55097 1.31814C3.69021 1.40965 3.85838 1.43934 4.01848 1.40068L4.00037 1.38167ZM8.27424 8.08633L8.11125 7.91523L2.2377 1.74922C2.18158 1.68983 2.11482 1.64268 2.04126 1.61051C1.9677 1.57834 1.8888 1.56177 1.80911 1.56177C1.72942 1.56177 1.65052 1.57834 1.57695 1.61051C1.50339 1.64268 1.43663 1.68983 1.38051 1.74922C1.26808 1.86796 1.20497 2.02857 1.20497 2.19599C1.20497 2.36341 1.26808 2.52402 1.38051 2.64276L0.903625 2.14212C0.237654 3.1179 -0.076898 4.31009 0.015956 5.50651C0.10881 6.70293 0.603045 7.82595 1.41069 8.67568L4.39878 11.8126C4.4549 11.8719 4.52166 11.9191 4.59522 11.9513C4.66879 11.9834 4.74769 12 4.82738 12C4.90706 12 4.98597 11.9834 5.05953 11.9513C5.13309 11.9191 5.19985 11.8719 5.25597 11.8126L7.67059 9.27771L7.40498 8.99887C7.51785 9.1182 7.67125 9.18558 7.83144 9.18617C7.99163 9.18676 8.14548 9.12053 8.25915 9.00204C8.37282 8.88355 8.437 8.72251 8.43756 8.55435C8.43813 8.38618 8.37504 8.22467 8.26217 8.10534L8.27424 8.08633ZM4.89981 6.33729C4.73033 6.34866 4.56046 6.32237 4.40131 6.26013C4.24216 6.19788 4.09731 6.10109 3.97622 5.97607C3.85496 5.85006 3.76053 5.69849 3.69914 5.53137C3.63775 5.36424 3.6108 5.18535 3.62007 5.0065L4.89981 6.33729ZM4.82738 10.4564L2.26788 7.76947C1.6886 7.15881 1.32413 6.35966 1.23419 5.50304C1.14426 4.64641 1.3342 3.78312 1.77289 3.05467L2.66026 3.98622C2.44379 4.45775 2.37168 4.98806 2.45382 5.50434C2.53597 6.02061 2.76834 6.49753 3.11903 6.86961C3.34295 7.10607 3.6091 7.29384 3.90224 7.42216C4.19539 7.55047 4.50977 7.61682 4.82738 7.61738C5.18982 7.61566 5.54707 7.52678 5.8717 7.35756L6.82547 8.35883L4.82738 10.4564Z" fill="white"/>
</svg>
