<svg width="12" height="17" viewBox="0 0 12 17" fill="none" xmlns="http://www.w3.org/2000/svg">
<path d="M6.12632 11.6532C5.9299 11.8497 5.9299 12.1726 6.12632 12.369C6.32274 12.5655 6.64567 12.5655 6.84213 12.369C7.03855 12.1726 7.03855 11.8497 6.84213 11.6532C6.64567 11.4535 6.32274 11.4535 6.12632 11.6532Z" fill="#AAAAAA"/>
<path d="M3.61935 9.59214C3.42292 9.39572 3.09998 9.39572 2.90355 9.59214C2.70712 9.78856 2.70712 10.1115 2.90355 10.308C3.09998 10.5044 3.42292 10.5044 3.61935 10.308C3.81578 10.1115 3.81578 9.79191 3.61935 9.59214Z" fill="#AAAAAA"/>
<path d="M11.4196 1.03209C11.2632 0.652551 10.7837 0.0133174 9.32547 0C9.30879 0 9.29551 0 9.27883 0C8.38327 0 7.31787 0.236383 6.26915 0.669196C6.07603 0.749098 5.8896 0.832335 5.70981 0.922225L5.69982 0.912237C5.10052 0.329604 4.14504 0.329604 3.54574 0.912237L0.609269 3.76548C0.219735 4.14169 0 4.66105 0 5.20376V14.8688C0 15.6479 0.632572 16.2804 1.41164 16.2804H7.83726C8.6163 16.2804 9.24887 15.6479 9.24887 14.8688V5.20376C9.24887 4.92743 9.19228 4.6544 9.08241 4.40804C9.70503 4.05846 10.2477 3.65894 10.6639 3.23944C11.6826 2.20402 11.5761 1.41164 11.4196 1.03209ZM1.76455 9.51191C1.76455 8.8394 2.31389 8.29004 2.98641 8.29004C3.65894 8.29004 4.20827 8.8394 4.20827 9.51191C4.20827 10.1844 3.65894 10.7338 2.98641 10.7338C2.31389 10.7338 1.76788 10.1878 1.76455 9.51191ZM2.8033 12.7081C2.67678 12.6015 2.66014 12.4151 2.76335 12.2886L5.9728 8.42323C6.07937 8.29669 6.26581 8.28005 6.39231 8.38328C6.51881 8.48981 6.53549 8.67624 6.43226 8.80274L3.22279 12.6681C3.11625 12.7946 2.92981 12.8113 2.8033 12.7081ZM6.21252 12.7946C5.54001 12.7946 4.99065 12.2453 4.99065 11.5728C4.99065 10.9002 5.54001 10.3509 6.21252 10.3509C6.88508 10.3509 7.43439 10.9002 7.43439 11.5728C7.43439 12.2453 6.88508 12.7946 6.21252 12.7946ZM7.56758 3.81874C6.955 4.07177 6.32573 4.25156 5.7531 4.33812C5.7531 4.36475 5.7564 4.38806 5.7564 4.41468C5.7564 5.06058 5.23371 5.58331 4.58782 5.58331C3.94193 5.58331 3.41922 5.06058 3.41922 4.41468C3.41922 3.76881 3.94193 3.2461 4.58782 3.2461C4.97402 3.2461 5.31362 3.43254 5.52667 3.71887C6.06938 3.62564 6.65535 3.45585 7.23132 3.21947C7.43439 3.13623 7.62417 3.04967 7.80395 2.95978L6.62538 1.81116C6.65865 1.79784 6.69196 1.78452 6.72527 1.76788C7.62082 1.39832 8.54973 1.18857 9.28217 1.18857C9.29216 1.18857 9.30549 1.18857 9.31548 1.18857C10.018 1.19523 10.281 1.385 10.3209 1.48488C10.4441 1.79118 9.66173 2.95645 7.56758 3.81874Z" fill="#AAAAAA"/>
</svg>
