<svg width="19" height="17" viewBox="0 0 19 17" fill="none" xmlns="http://www.w3.org/2000/svg">
<path d="M17.0634 14.8669C17.7331 14.8669 18.285 14.3269 18.285 13.652C18.285 12.986 17.7421 12.4371 17.0634 12.4371H9.02815L4.70284 3.96856C4.69379 3.93256 4.68474 3.88756 4.66665 3.85156C4.58521 3.71657 4.56711 3.54558 4.61235 3.39259C4.6576 3.2306 4.76618 3.09561 4.92001 3.00561C5.21862 2.83462 5.62581 2.93362 5.77964 3.2126C5.86108 3.35659 6.05111 3.41059 6.19589 3.32059C6.29542 3.2666 6.34972 3.1586 6.34972 3.05961C6.34972 3.00561 6.34067 2.95161 6.31352 2.90662C6.23208 2.77163 6.21398 2.60064 6.25923 2.44764C6.30447 2.28565 6.41306 2.15066 6.56688 2.06067C6.86549 1.88968 7.28174 1.97967 7.44462 2.25866C7.52605 2.40265 7.71608 2.45664 7.86086 2.36665C8.00564 2.28565 8.05993 2.09667 7.96944 1.95267C7.25459 0.737746 5.98776 0.00878906 4.56711 0.00878906C3.82511 0.00878906 3.08311 0.206777 2.4135 0.593755C0.422776 1.74569 -0.273978 4.13954 0.839019 6.05643C0.893312 6.15543 1.0019 6.20942 1.10143 6.20942C1.15573 6.20942 1.20097 6.20042 1.25526 6.17342C1.40004 6.09243 1.45434 5.90344 1.36385 5.75945C1.19192 5.47147 1.3186 5.08449 1.62626 4.9135C1.92487 4.74251 2.33207 4.8325 2.48589 5.12049C2.56733 5.26448 2.75736 5.31848 2.90214 5.22848C3.00167 5.17448 3.05597 5.06649 3.05597 4.9675C3.05597 4.9135 3.04692 4.8685 3.01977 4.81451C2.93833 4.67951 2.92023 4.50852 2.96548 4.35553C3.01072 4.19354 3.11931 4.05855 3.27314 3.96856C3.53555 3.81556 3.8794 3.86956 4.06943 4.08555C4.06943 4.09455 4.06943 4.09455 4.07848 4.10355L7.9423 11.6631L3.9156 7.65834C3.68938 7.43335 3.38172 7.30736 3.05597 7.30736C2.73021 7.30736 2.42255 7.43335 2.19633 7.65834C1.97011 7.88332 1.84343 8.18931 1.84343 8.51329C1.84343 8.83727 1.97011 9.14325 2.19633 9.36824L7.41747 14.5519C7.74322 14.7679 8.12327 14.8759 8.53952 14.8759H17.0634V14.8669Z" fill="white"/>
<path d="M0.0882254 16.4779C-0.0294085 16.5949 -0.0294085 16.7929 0.0882254 16.9099C0.151567 16.9729 0.223956 16.9999 0.305395 16.9999C0.386834 16.9999 0.459224 16.9729 0.522565 16.9099L0.739736 16.6939C0.748784 16.6939 0.748784 16.6939 0.757833 16.6939H18.2943V15.182H7.44486L0.522565 8.28843C0.404931 8.17144 0.205859 8.17144 0.0882254 8.28843C-0.0294085 8.40542 -0.0294085 8.59441 0.0882254 8.7204L3.98824 12.5992L0.495419 16.073L0.0882254 16.4779ZM2.25993 15.173L4.42258 13.0221L6.58523 15.173H2.25993Z" fill="white"/>
<path d="M16.1586 3.65378C16.3306 3.65378 16.4663 3.51879 16.4663 3.3478C16.4663 3.17681 16.3306 3.04182 16.1586 3.04182H15.5252C15.4709 2.60085 15.2899 2.19587 15.0275 1.86289L15.4709 1.41292C15.5886 1.29592 15.5886 1.10693 15.4709 0.980942C15.3533 0.863949 15.1633 0.863949 15.0366 0.980942L14.5841 1.42192C14.2493 1.16093 13.8421 0.989942 13.3988 0.935945V0.305982C13.3988 0.134992 13.263 0 13.0911 0C12.9192 0 12.7834 0.134992 12.7834 0.305982V0.935945C12.3401 0.989942 11.9329 1.16993 11.5981 1.42192L11.1547 0.980942C11.037 0.863949 10.838 0.863949 10.7203 0.980942C10.6027 1.09794 10.6027 1.28692 10.7203 1.41292L11.1728 1.86289C10.9103 2.19587 10.7384 2.60085 10.6751 3.04182H10.0417C9.86974 3.04182 9.73401 3.17681 9.73401 3.3478C9.73401 3.51879 9.86974 3.65378 10.0417 3.65378H10.6751C10.7294 4.09476 10.9013 4.49973 11.1637 4.83272L10.7203 5.27369C10.6027 5.39068 10.6027 5.58867 10.7203 5.70566C10.7837 5.76866 10.8561 5.79566 10.9375 5.79566C11.0189 5.79566 11.0913 5.76866 11.1547 5.70566L11.5981 5.26469C11.9329 5.52567 12.3401 5.70566 12.7834 5.75966V6.38962C12.7834 6.56061 12.9192 6.69561 13.0911 6.69561C13.263 6.69561 13.3988 6.56061 13.3988 6.38962V5.75966C13.8421 5.70566 14.2493 5.52567 14.5841 5.26469L15.0275 5.70566C15.0909 5.76866 15.1633 5.79566 15.2447 5.79566C15.3261 5.79566 15.3985 5.76866 15.4619 5.70566C15.5795 5.58867 15.5795 5.39068 15.4619 5.27369L15.0094 4.83272C15.2719 4.49973 15.4438 4.09476 15.5071 3.65378H16.1586Z" fill="white"/>
</svg>
