<svg width="17" height="17" viewBox="0 0 17 17" fill="none" xmlns="http://www.w3.org/2000/svg">
<path d="M6.81855 6.9137C6.61096 6.57964 6.44465 6.22467 6.32043 5.85645V11.2632L8.06181 8.27802C7.57013 7.90521 7.14812 7.44399 6.81855 6.9137Z" fill="#AAAAAA"/>
<path d="M11.1154 0.163574C8.86598 0.163574 7.03589 1.99366 7.03589 4.24311C7.03589 4.55774 7.07291 4.86676 7.14254 5.16549C7.1441 5.17227 7.14569 5.17907 7.14729 5.18581C7.15502 5.21835 7.16319 5.25076 7.17172 5.28303C7.17342 5.28941 7.17514 5.29578 7.1769 5.30212C7.21492 5.44307 7.26037 5.5814 7.31294 5.71666C7.31526 5.72261 7.31748 5.72858 7.31984 5.73456C7.33156 5.76428 7.34368 5.79383 7.35607 5.82321C7.35972 5.83195 7.36344 5.84064 7.36719 5.84934C7.37957 5.87816 7.39216 5.90689 7.40521 5.93541C7.40856 5.94281 7.41208 5.95012 7.4155 5.95749C7.45883 6.05082 7.50558 6.14243 7.55572 6.23214C7.55937 6.23872 7.56292 6.24532 7.56661 6.2519C7.58072 6.27687 7.59533 6.30157 7.61 6.32621C7.61698 6.33789 7.62388 6.34962 7.63096 6.36124C7.64507 6.38445 7.65941 6.40749 7.67399 6.4304C7.68196 6.44298 7.69009 6.45547 7.69826 6.46795C7.71283 6.49036 7.72748 6.51274 7.74248 6.53489C7.75059 6.54681 7.75895 6.55863 7.76719 6.57045C7.79803 6.61481 7.82964 6.65857 7.86218 6.7017C7.86889 6.7106 7.87543 6.7197 7.8822 6.7285C7.89668 6.74736 7.91159 6.76588 7.92643 6.78454C7.93828 6.79945 7.9501 6.81439 7.96219 6.82917C7.97663 6.8468 7.99128 6.86423 8.00602 6.8816C8.0192 6.89717 8.03248 6.91257 8.04586 6.92795C8.06027 6.94448 8.07478 6.96095 8.08946 6.97725C8.10427 6.99366 8.11934 7.00989 8.13441 7.02606C8.14829 7.04097 8.16207 7.05598 8.17618 7.07069C8.19823 7.09366 8.22071 7.11628 8.24329 7.13875C8.25926 7.15466 8.27546 7.17036 8.2917 7.186C8.31268 7.20622 8.33373 7.22631 8.35515 7.2461C8.36846 7.25835 8.38198 7.27037 8.39546 7.28242C8.41448 7.29949 8.43357 7.31646 8.45293 7.33316C8.46684 7.34518 8.48089 7.3571 8.49497 7.36892C8.51502 7.38575 8.53524 7.40235 8.5556 7.41886C8.56904 7.42975 8.58246 7.44067 8.59607 7.45136C8.62028 7.47042 8.64481 7.48908 8.66945 7.50764C8.67948 7.51515 8.68934 7.52291 8.69943 7.53035C8.73396 7.55579 8.76893 7.58069 8.80435 7.60509C8.81455 7.61213 8.82494 7.61887 8.8352 7.62578C8.8614 7.64348 8.88769 7.66094 8.91436 7.67807C8.92777 7.68667 8.94132 7.69511 8.95483 7.70357C8.9792 7.71881 9.00371 7.73385 9.02844 7.7486C9.04235 7.7569 9.05633 7.76516 9.07034 7.77333C9.09654 7.78854 9.12297 7.80335 9.14957 7.81799C9.16195 7.82483 9.17424 7.83174 9.18672 7.83844C9.2257 7.8594 9.26498 7.87991 9.30479 7.89964L10.0123 8.99049L10.625 9.93509L10.704 10.0569C10.7944 10.1963 10.9493 10.2804 11.1154 10.2804C11.2816 10.2804 11.4364 10.1963 11.5268 10.0569L11.6058 9.93509L11.6526 9.86291L12.2129 8.99919L12.9261 7.89967C12.966 7.87988 13.0054 7.85933 13.0444 7.83834C13.0569 7.8316 13.0693 7.82457 13.0818 7.81773C13.1083 7.80312 13.1346 7.78834 13.1608 7.77317C13.175 7.7649 13.1892 7.75647 13.2034 7.748C13.2278 7.73342 13.252 7.71861 13.2761 7.70354C13.29 7.69481 13.304 7.68611 13.3178 7.67724C13.3431 7.66094 13.3682 7.64421 13.3932 7.62737C13.4048 7.61954 13.4166 7.61183 13.4282 7.60386C13.4635 7.57946 13.4985 7.55466 13.5329 7.52926C13.5421 7.52248 13.551 7.51544 13.5601 7.50867C13.5857 7.48945 13.6111 7.47009 13.6362 7.4503C13.6502 7.43924 13.664 7.42799 13.6778 7.41673C13.6977 7.40069 13.7174 7.38452 13.7369 7.36812C13.7518 7.35564 13.7665 7.34305 13.7811 7.33037C13.7992 7.31466 13.8172 7.29879 13.835 7.28276C13.8498 7.26944 13.8647 7.25619 13.8793 7.24271C13.8969 7.22644 13.9142 7.20984 13.9315 7.19324C13.9455 7.17979 13.9598 7.16655 13.9736 7.15293C14.0018 7.12517 14.0296 7.09702 14.0569 7.0685C14.0727 7.05203 14.088 7.03516 14.1035 7.01843C14.1169 7.00408 14.1302 6.98974 14.1433 6.9752C14.1595 6.9572 14.1754 6.93897 14.1913 6.92071C14.203 6.90726 14.2146 6.89381 14.2261 6.88023C14.2424 6.86094 14.2586 6.84152 14.2745 6.82193C14.2846 6.80958 14.2945 6.79713 14.3044 6.78464C14.3211 6.76359 14.3378 6.74254 14.3542 6.72119C14.3605 6.71292 14.3666 6.70449 14.3729 6.69619C14.4334 6.61571 14.4909 6.53306 14.5453 6.4484C14.5499 6.44122 14.5546 6.43418 14.5591 6.42698C14.576 6.40045 14.5924 6.37365 14.6086 6.34673C14.6134 6.33876 14.6182 6.33076 14.6229 6.32279C14.6394 6.295 14.6556 6.26707 14.6714 6.23892C14.6743 6.23374 14.6771 6.22852 14.68 6.22334C14.7526 6.09279 14.818 5.95825 14.8761 5.82016C14.8766 5.819 14.8771 5.8178 14.8776 5.81664C14.8919 5.78241 14.9058 5.74798 14.9191 5.71338C14.9201 5.71105 14.9209 5.7087 14.9219 5.70637C15.0049 5.49085 15.07 5.26763 15.1157 5.03866C15.1157 5.03862 15.1157 5.03856 15.1157 5.03852C15.1674 4.77947 15.1949 4.51338 15.1949 4.24311C15.195 1.99366 13.3649 0.163574 11.1154 0.163574ZM11.1154 6.45816C9.89408 6.45816 8.90038 5.46449 8.90038 4.24311C8.90038 3.02173 9.89405 2.02803 11.1154 2.02803C12.3368 2.02803 13.3305 3.0217 13.3305 4.24311C13.3305 5.46449 12.3368 6.45816 11.1154 6.45816Z" fill="#AAAAAA"/>
<path d="M16.6262 5.40834L16.0694 5.27197C15.949 5.85021 15.7277 6.40583 15.4121 6.91363C14.9637 7.6351 14.3447 8.22947 13.611 8.64591L12.8654 9.7954L14.6168 11.9327H17V5.88464C17 5.65872 16.8456 5.46206 16.6262 5.40834Z" fill="#AAAAAA"/>
<path d="M0.60702 4.10051C0.460826 4.06469 0.306166 4.09802 0.187631 4.19099C0.0691953 4.28399 0 4.42624 0 4.57681V9.31719H2.61538C2.74686 9.31719 2.87283 9.36998 2.96501 9.46375L5.33973 11.8787V5.25954L0.60702 4.10051Z" fill="#AAAAAA"/>
<path d="M9.8811 10.5903L8.84321 8.99023H8.78158L6.32043 13.2094V16.7308L10.625 15.6766V11.1766C10.3235 11.0703 10.0609 10.8675 9.8811 10.5903Z" fill="#AAAAAA"/>
<path d="M14.3845 12.9132C14.2376 12.9132 14.0984 12.8473 14.0053 12.7336L12.3034 10.6567C12.1261 10.9 11.8825 11.079 11.6057 11.1765V15.6498L16.3929 16.8222C16.4315 16.8316 16.4706 16.8362 16.5095 16.8362C16.6182 16.8362 16.7251 16.8001 16.8123 16.7316C16.9308 16.6387 17 16.4965 17 16.3459V12.9132H14.3845Z" fill="#AAAAAA"/>
<path d="M2.40985 10.2979H0V15.0382C0 15.2641 0.154295 15.4608 0.373734 15.5145L5.33973 16.7307V13.2774L2.40985 10.2979Z" fill="#AAAAAA"/>
</svg>
