<svg width="25" height="17" viewBox="0 0 25 17" fill="none" xmlns="http://www.w3.org/2000/svg">
<path d="M12.5093 14.4142C12.5212 14.2197 12.5332 14.0248 12.5587 13.8281C12.6059 13.3615 12.7072 12.8931 12.8107 12.4374C12.8737 12.2101 12.942 11.9856 13.0136 11.766C13.1052 11.5518 13.1948 11.3387 13.2842 11.1305C13.4865 10.7242 13.7127 10.3446 13.9827 10.0268C14.0468 9.94491 14.1103 9.86557 14.1726 9.78593C14.2436 9.71491 14.3147 9.64609 14.3832 9.57723C14.5278 9.44652 14.6532 9.305 14.7976 9.20117C15.0853 8.98805 15.3399 8.78545 15.599 8.66003C15.8488 8.52067 16.063 8.39968 16.2561 8.33144C16.6347 8.1791 16.8496 8.10249 16.8496 8.10249C16.8496 8.10249 16.6663 8.24791 16.3461 8.48384C16.1807 8.5918 16.0053 8.76217 15.7966 8.93674C15.579 9.10322 15.382 9.34193 15.1478 9.57064C15.0306 9.6875 14.9397 9.83431 14.8289 9.96944C14.7751 10.0383 14.7198 10.1076 14.6629 10.1781C14.6169 10.2559 14.5691 10.3339 14.5208 10.4135C14.314 10.7199 14.1595 11.0796 13.9985 11.4445C13.9324 11.6354 13.8656 11.8292 13.7973 12.0248C13.7506 12.2282 13.699 12.4338 13.6427 12.6386C13.5581 13.0596 13.4751 13.489 13.4393 13.9305C13.4143 14.0906 13.4024 14.2521 13.3874 14.4148C16.8955 14.4153 19.6108 14.4175 23.4101 14.4175C23.4229 14.251 23.4301 14.0823 23.4301 13.9127C23.4301 10.7129 21.0983 8.07754 18.0978 7.72841C18.2915 7.54721 18.4142 7.29018 18.4142 7.00434C18.4153 6.45488 17.9701 6.01025 17.4218 6.01025C16.8728 6.01025 16.4271 6.45488 16.4271 7.00434C16.4271 7.29076 16.5492 7.54717 16.7435 7.72841C13.7432 8.07754 11.412 10.7129 11.412 13.9127C11.412 14.0817 11.4181 14.2482 11.4306 14.4142C11.8011 14.4142 12.1588 14.4142 12.5093 14.4142Z" fill="#AAAAAA"/>
<path d="M24.5251 14.7847H10.3181V16.038H24.5251V14.7847Z" fill="#AAAAAA"/>
<path d="M21.159 1.96237C21.159 5.60122 3.51357 9.61772 2.17744 9.61772C1.42833 9.61772 0.57841 9.4461 0.57841 8.75954C0.57841 8.5301 0.844734 8.19858 1.31206 7.79887L1.31154 7.79916L0.0729125 5.61122C-0.0948033 5.31504 0.0381663 4.93976 0.355551 4.81343L0.568422 4.72869C0.954227 4.57512 1.38843 4.59801 1.75571 4.79128L4.00433 5.97472C4.87984 5.45849 5.87301 4.91798 6.91976 4.3858L2.53776 1.55951C2.1911 1.33589 2.19479 0.830154 2.54471 0.611625L2.90317 0.387732C3.49977 0.0151157 4.22506 -0.0949403 4.90629 0.0836859L12.1961 1.99526C14.469 1.09839 16.5241 0.486239 17.7404 0.486239C18.0653 0.486239 18.3906 0.494798 18.7046 0.517107L16.5031 1.5051L16.4504 2.24126L19.8487 0.688273C20.6632 0.881402 21.159 1.24185 21.159 1.96237Z" fill="#AAAAAA"/>
</svg>
