<svg width="53" height="56" viewBox="0 0 53 56" fill="none" xmlns="http://www.w3.org/2000/svg">
<circle cx="26.1594" cy="8.71288" r="8.17479" fill="#FCB009"/>
<path d="M14.7148 27.0701C14.7148 21.1455 19.5176 16.3428 25.4421 16.3428H26.877C32.8015 16.3428 37.6043 21.1456 37.6043 27.0701V35.9623H14.7148V27.0701Z" fill="#FCB009"/>
<path d="M10.4668 44.876L8.03385 39.7773L5.6009 44.876L0 45.6143L4.09726 49.5037L3.06866 55.0586L8.03385 52.3638L12.999 55.0586L12.4847 52.2812L8.03385 47.9521L11.9704 49.5037L16.0677 45.6143L10.4668 44.876Z" fill="#FCB009"/>
<path d="M28.4514 44.876L26.0185 39.7773L23.5855 44.876L17.9846 45.6143L22.0819 49.5037L21.0533 55.0586L26.0185 52.3638L30.9837 55.0586L30.4694 52.2812L26.0185 47.9521L29.955 49.5037L34.0523 45.6143L28.4514 44.876Z" fill="#FCB009"/>
<path d="M46.9807 44.876L44.5478 39.7773L42.1148 44.876L36.5139 45.6143L40.6112 49.5037L39.5826 55.0586L44.5478 52.3638L49.513 55.0586L48.9986 52.2812L44.5478 47.9521L48.4843 49.5037L52.5816 45.6143L46.9807 44.876Z" fill="#FCB009"/>
</svg>
