<svg width="50" height="50" viewBox="0 0 50 50" fill="none" xmlns="http://www.w3.org/2000/svg">
<circle cx="7.59513" cy="8.96488" r="1.75273" fill="#FCB009"/>
<circle cx="40.8969" cy="8.38045" r="2.50545" stroke="#FCB009" stroke-width="2"/>
<path fill-rule="evenodd" clip-rule="evenodd" d="M47.0763 24.7393C47.0763 37.1868 36.9856 47.2775 24.5382 47.2775C20.0284 47.2775 15.8279 45.9529 12.3047 43.6716L10.9921 45.2028C14.874 47.7777 19.5309 49.2775 24.5382 49.2775C38.0902 49.2775 49.0763 38.2914 49.0763 24.7393C49.0763 18.4712 46.7261 12.7519 42.8587 8.41479L41.5442 9.94819C44.9899 13.9065 47.0763 19.0793 47.0763 24.7393ZM6.16411 41.0037L7.47925 39.4695C4.06509 35.5191 2 30.3704 2 24.7393C2 20.5085 3.16574 16.55 5.19354 13.1674L3.65189 11.8532C1.33637 15.5983 0 20.0128 0 24.7393C0 30.9785 2.32859 36.6739 6.16411 41.0037ZM8.84845 5.87176L10.395 7.19014C14.2622 4.06956 19.182 2.20117 24.5382 2.20117C29.0191 2.20117 33.1946 3.50884 36.7039 5.76338L38.0172 4.23147C34.1487 1.68375 29.5166 0.201172 24.5382 0.201172C18.5713 0.201172 13.1018 2.33094 8.84845 5.87176Z" fill="#FCB009"/>
<circle cx="8.1794" cy="41.0982" r="2.50545" stroke="#FCB009" stroke-width="2"/>
<rect x="15.0219" y="19.897" width="20.2012" height="17.8642" rx="2" stroke="#FCB009" stroke-width="2"/>
<mask id="path-6-inside-1_16_142" fill="white">
<path fill-rule="evenodd" clip-rule="evenodd" d="M27.1088 29.3494C27.9544 28.7835 28.5111 27.8196 28.5111 26.7257C28.5111 24.9833 27.0986 23.5708 25.3562 23.5708C23.6138 23.5708 22.2013 24.9833 22.2013 26.7257C22.2013 27.8195 22.7579 28.7833 23.6034 29.3493V32.3345C23.6034 33.3025 24.3881 34.0872 25.3561 34.0872C26.3241 34.0872 27.1088 33.3025 27.1088 32.3345V29.3494Z"/>
</mask>
<path d="M27.1088 29.3494L26.5526 28.5184L26.1088 28.8154V29.3494H27.1088ZM23.6034 29.3493H24.6034V28.8153L24.1597 28.5183L23.6034 29.3493ZM27.5111 26.7257C27.5111 27.4719 27.1327 28.1301 26.5526 28.5184L27.665 30.1805C28.7761 29.4368 29.5111 28.1673 29.5111 26.7257H27.5111ZM25.3562 24.5708C26.5463 24.5708 27.5111 25.5356 27.5111 26.7257H29.5111C29.5111 24.431 27.6509 22.5708 25.3562 22.5708V24.5708ZM23.2013 26.7257C23.2013 25.5356 24.1661 24.5708 25.3562 24.5708V22.5708C23.0615 22.5708 21.2013 24.431 21.2013 26.7257H23.2013ZM24.1597 28.5183C23.5797 28.13 23.2013 27.4719 23.2013 26.7257H21.2013C21.2013 28.1672 21.9362 29.4366 23.0471 30.1803L24.1597 28.5183ZM24.6034 32.3345V29.3493H22.6034V32.3345H24.6034ZM25.3561 33.0872C24.9404 33.0872 24.6034 32.7502 24.6034 32.3345H22.6034C22.6034 33.8548 23.8358 35.0872 25.3561 35.0872V33.0872ZM26.1088 32.3345C26.1088 32.7502 25.7718 33.0872 25.3561 33.0872V35.0872C26.8764 35.0872 28.1088 33.8548 28.1088 32.3345H26.1088ZM26.1088 29.3494V32.3345H28.1088V29.3494H26.1088Z" fill="#FCB009" mask="url(#path-6-inside-1_16_142)"/>
<path fill-rule="evenodd" clip-rule="evenodd" d="M17.3588 17.1442C17.3588 12.8565 20.8347 9.38062 25.1224 9.38062C29.4101 9.38062 32.886 12.8565 32.886 17.1442V20.0654H33.886V17.1442C33.886 12.3042 29.9624 8.38062 25.1224 8.38062C20.2824 8.38062 16.3588 12.3042 16.3588 17.1442V20.0654H17.3588V17.1442ZM30.2121 20.0654V17.1442C30.2121 14.3332 27.9334 12.0545 25.1224 12.0545C22.3115 12.0545 20.0328 14.3332 20.0328 17.1442V20.0654H21.0328V17.1442C21.0328 14.8855 22.8638 13.0545 25.1224 13.0545C27.3811 13.0545 29.2121 14.8855 29.2121 17.1442V20.0654H30.2121ZM25.095 35.6452C25.1041 35.6452 25.1133 35.6452 25.1224 35.6452C25.1315 35.6452 25.1407 35.6452 25.1498 35.6452H25.095Z" fill="#FCB009"/>
</svg>
