<svg width="10" height="10" viewBox="0 0 10 10" fill="none" xmlns="http://www.w3.org/2000/svg">
<path fill-rule="evenodd" clip-rule="evenodd" d="M4.75 0C3.4599 0 3.2984 0.00538333 2.79173 0.0285C2.28602 0.0516167 1.94053 0.13205 1.63843 0.249533C1.32177 0.3686 1.03455 0.555433 0.79705 0.797367C0.555503 1.03459 0.368555 1.32161 0.249217 1.63843C0.132367 1.94053 0.0516167 2.28633 0.0285 2.79205C0.0057 3.2984 0 3.45958 0 4.75C0 6.04042 0.00538333 6.2016 0.0285 6.70827C0.0516167 7.21398 0.13205 7.55947 0.249533 7.86157C0.3686 8.17823 0.555433 8.46545 0.797367 8.70295C1.0346 8.94449 1.32161 9.13144 1.63843 9.25078C1.94053 9.36795 2.28602 9.44838 2.79173 9.4715C3.2984 9.49462 3.4599 9.5 4.75 9.5C6.0401 9.5 6.2016 9.49462 6.70827 9.4715C7.21398 9.44838 7.55947 9.36795 7.86157 9.25047C8.17823 9.1314 8.46545 8.94457 8.70295 8.70263C8.9445 8.46541 9.13144 8.17839 9.25078 7.86157C9.36795 7.55947 9.44838 7.21398 9.4715 6.70827C9.49462 6.2016 9.5 6.0401 9.5 4.75C9.5 3.4599 9.49462 3.2984 9.4715 2.79173C9.44838 2.28602 9.36795 1.94053 9.25047 1.63843C9.13121 1.32147 8.94426 1.03434 8.70263 0.79705C8.46541 0.555503 8.17839 0.368555 7.86157 0.249217C7.55947 0.132367 7.21367 0.0516167 6.70795 0.0285C6.2016 0.0057 6.04042 0 4.75 0ZM4.75 0.85595C6.01825 0.85595 6.16867 0.8607 6.66963 0.8835C7.1326 0.904717 7.38403 0.981667 7.55155 1.04722C7.77322 1.13303 7.93155 1.23627 8.0978 1.4022C8.26405 1.56845 8.36697 1.72678 8.45278 1.94845C8.51802 2.11597 8.59528 2.3674 8.6165 2.83037C8.6393 3.33133 8.64405 3.48175 8.64405 4.75C8.64405 6.01825 8.6393 6.16867 8.6165 6.66963C8.59528 7.1326 8.51833 7.38403 8.45278 7.55155C8.37676 7.75787 8.25546 7.94453 8.0978 8.0978C7.94456 8.25549 7.75789 8.3768 7.55155 8.45278C7.38403 8.51802 7.1326 8.59528 6.66963 8.6165C6.16867 8.6393 6.01857 8.64405 4.75 8.64405C3.48143 8.64405 3.33133 8.6393 2.83037 8.6165C2.3674 8.59528 2.11597 8.51833 1.94845 8.45278C1.74213 8.37676 1.55547 8.25546 1.4022 8.0978C1.24456 7.94452 1.12326 7.75786 1.04722 7.55155C0.981983 7.38403 0.904717 7.1326 0.8835 6.66963C0.8607 6.16867 0.85595 6.01825 0.85595 4.75C0.85595 3.48175 0.8607 3.33133 0.8835 2.83037C0.904717 2.3674 0.981667 2.11597 1.04722 1.94845C1.13303 1.72678 1.23627 1.56845 1.4022 1.4022C1.55545 1.24451 1.74211 1.12321 1.94845 1.04722C2.11597 0.981983 2.3674 0.904717 2.83037 0.8835C3.33133 0.8607 3.48175 0.85595 4.75 0.85595Z" fill="#828282"/>
<path fill-rule="evenodd" clip-rule="evenodd" d="M4.38799 6.71289C4.17588 6.71289 3.96585 6.67044 3.76989 6.58796C3.57393 6.50548 3.39588 6.38459 3.2459 6.23219C3.09592 6.07979 2.97694 5.89886 2.89578 5.69974C2.81461 5.50062 2.77283 5.2872 2.77283 5.07167C2.77283 4.85614 2.81461 4.64272 2.89578 4.4436C2.97694 4.24448 3.09592 4.06355 3.2459 3.91115C3.39588 3.75875 3.57393 3.63786 3.76989 3.55538C3.96585 3.4729 4.17588 3.43045 4.38799 3.43045C4.81635 3.43045 5.22717 3.60336 5.53007 3.91115C5.83297 4.21894 6.00314 4.63639 6.00314 5.07167C6.00314 5.50695 5.83297 5.9244 5.53007 6.23219C5.22717 6.53998 4.81635 6.71289 4.38799 6.71289ZM4.38799 2.54344C3.7281 2.54344 3.09525 2.8098 2.62864 3.28394C2.16204 3.75808 1.8999 4.40114 1.8999 5.07167C1.8999 5.7422 2.16204 6.38526 2.62864 6.8594C3.09525 7.33354 3.7281 7.5999 4.38799 7.5999C5.04787 7.5999 5.68072 7.33354 6.14733 6.8594C6.61393 6.38526 6.87607 5.7422 6.87607 5.07167C6.87607 4.40114 6.61393 3.75808 6.14733 3.28394C5.68072 2.8098 5.04787 2.54344 4.38799 2.54344ZM7.5999 2.49753C7.5999 2.65603 7.53794 2.80804 7.42764 2.92012C7.31735 3.03219 7.16775 3.09516 7.01177 3.09516C6.85578 3.09516 6.70619 3.03219 6.59589 2.92012C6.48559 2.80804 6.42363 2.65603 6.42363 2.49753C6.42363 2.33903 6.48559 2.18702 6.59589 2.07494C6.70619 1.96287 6.85578 1.8999 7.01177 1.8999C7.16775 1.8999 7.31735 1.96287 7.42764 2.07494C7.53794 2.18702 7.5999 2.33903 7.5999 2.49753Z" fill="#828282"/>
</svg>
