<svg width="12" height="12" viewBox="0 0 12 12" fill="none" xmlns="http://www.w3.org/2000/svg">
<path d="M5.6 0C4.1153 0.0017888 2.69189 0.634504 1.64205 1.75934C0.592204 2.88417 0.00166955 4.40925 0 6C0.00252422 7.59047 0.593333 9.11502 1.64299 10.2397C2.69265 11.3643 4.11556 11.9973 5.6 12C7.08521 12 8.50959 11.3679 9.5598 10.2426C10.61 9.11742 11.2 7.5913 11.2 6C11.2 4.4087 10.61 2.88258 9.5598 1.75736C8.50959 0.632141 7.08521 0 5.6 0ZM9.00618 9.46216C8.69165 8.78253 8.20611 8.2106 7.60435 7.81088C7.00259 7.41117 6.30855 7.19959 5.60052 7.2C4.8925 7.20041 4.19867 7.4128 3.59732 7.81321C2.99596 8.21362 2.511 8.78612 2.19715 9.46611C1.35972 8.53567 0.893077 7.29259 0.896 6C0.896 4.66331 1.3916 3.38137 2.27377 2.43618C3.15594 1.491 4.35242 0.96 5.6 0.96C6.84758 0.96 8.04406 1.491 8.92623 2.43618C9.8084 3.38137 10.304 4.66331 10.304 6C10.3068 7.2907 9.84145 8.53209 9.00618 9.46216ZM5.6 2.4C5.20127 2.4 4.8115 2.52668 4.47997 2.76403C4.14844 3.00137 3.89004 3.33872 3.73746 3.7334C3.58487 4.12809 3.54495 4.5624 3.62274 4.9814C3.70052 5.40039 3.89253 5.78527 4.17447 6.08735C4.45642 6.38943 4.81563 6.59515 5.2067 6.6785C5.59776 6.76184 6.00311 6.71907 6.37149 6.55558C6.73986 6.39209 7.05472 6.11524 7.27624 5.76003C7.49776 5.40482 7.616 4.98721 7.616 4.56C7.616 4.27634 7.56385 3.99547 7.46254 3.7334C7.36123 3.47134 7.21273 3.23322 7.02553 3.03265C6.83832 2.83207 6.61608 2.67297 6.37149 2.56442C6.1269 2.45587 5.86474 2.4 5.6 2.4Z" fill="white"/>
</svg>
