<svg width="17" height="17" viewBox="0 0 17 17" fill="none" xmlns="http://www.w3.org/2000/svg">
<path d="M0 9.33002C0 7.64003 1.37001 6.27002 3.06 6.27002H3.57V12.39H3.06C1.37001 12.39 0 11.02 0 9.33002Z" fill="white"/>
<path d="M17 9.33002C17 7.64003 15.63 6.27002 13.94 6.27002H13.43V12.39H13.94C15.63 12.39 17 11.02 17 9.33002Z" fill="white"/>
<path d="M6.80005 15.6201C6.80005 15.0568 7.25672 14.6001 7.82005 14.6001H9.18005C9.74338 14.6001 10.2 15.0568 10.2 15.6201C10.2 16.1834 9.74338 16.6401 9.18005 16.6401H7.82005C7.25672 16.6401 6.80005 16.1834 6.80005 15.6201Z" fill="white"/>
<path d="M6.28998 15.3654H5.77998C4.31082 15.3654 3.09039 14.3004 2.84853 12.9004H2.33203C2.57882 14.5833 4.02851 15.8754 5.77998 15.8754H6.28998V15.3654Z" fill="white"/>
<path d="M17 9.33002C17 7.64003 15.63 6.27002 13.94 6.27002H13.43V12.39H13.94C15.63 12.39 17 11.02 17 9.33002Z" fill="white"/>
<path d="M2.88999 9.5V6.61C2.88999 3.51168 5.40167 1 8.49999 1V1C11.5983 1 14.11 3.51168 14.11 6.61V9.5" stroke="white" stroke-width="1.26"/>
</svg>
