<svg width="29" height="29" viewBox="0 0 29 29" fill="none" xmlns="http://www.w3.org/2000/svg">
<path d="M22.6109 0H6.92403C3.39542 0 0.534912 2.86051 0.534912 6.38912V22.076C0.534912 25.6046 3.39542 28.4651 6.92403 28.4651H22.6109C26.1395 28.4651 29 25.6046 29 22.076V6.38912C29 2.86051 26.1395 0 22.6109 0Z" fill="#FF722E"/>
<path fill-rule="evenodd" clip-rule="evenodd" d="M22.792 7.41471C23.6521 7.64577 24.3325 8.32614 24.5635 9.18621C24.9872 10.7523 25 14.0001 25 14.0001C25 14.0001 25 17.2607 24.5764 18.8139C24.3453 19.674 23.665 20.3544 22.8049 20.5854C21.2516 21.0091 15 21.0091 15 21.0091C15 21.0091 8.74839 21.0091 7.19512 20.5854C6.33504 20.3544 5.65469 19.674 5.42362 18.8139C5 17.2478 5 14.0001 5 14.0001C5 14.0001 5 10.7523 5.41078 9.19905C5.64185 8.33897 6.32221 7.65861 7.18229 7.42755C8.73556 7.00392 14.9872 6.99109 14.9872 6.99109C14.9872 6.99109 21.2388 6.99109 22.792 7.41471ZM18.1836 14.0001L12.9974 17.0039V10.9962L18.1836 14.0001Z" fill="white"/>
</svg>
