<svg width="171" height="52" viewBox="0 0 171 52" fill="none" xmlns="http://www.w3.org/2000/svg">
<path d="M64.3894 14.7423C64.3848 14.783 64.3652 14.8205 64.3347 14.8474C64.3041 14.8743 64.2647 14.8887 64.2243 14.8877H60.0253L58.1914 26.7008C58.1888 26.7429 58.1702 26.7825 58.1393 26.8109C58.1085 26.8394 58.068 26.8547 58.0263 26.8535H57.1288C57.0182 26.8535 56.9636 26.7779 56.9851 26.663L58.819 14.8833H54.6544C54.5453 14.8833 54.4893 14.8077 54.5108 14.6928L54.6386 13.893C54.6416 13.8509 54.6604 13.8116 54.6911 13.7832C54.7218 13.7548 54.7622 13.7394 54.8038 13.7403H64.3736C64.4842 13.7403 64.5388 13.8173 64.5172 13.9308L64.3894 14.7423Z" fill="#BABABA"/>
<path d="M65.7264 26.7082C65.7235 26.7502 65.7047 26.7895 65.6739 26.8179C65.6432 26.8463 65.6029 26.8617 65.5612 26.8609H64.6996C64.5891 26.8609 64.5345 26.7838 64.556 26.6689L65.7666 18.858H64.9409C64.9176 18.8592 64.8944 18.8546 64.8733 18.8446C64.8522 18.8347 64.8337 18.8197 64.8196 18.801C64.8055 18.7822 64.7961 18.7603 64.7922 18.737C64.7883 18.7138 64.79 18.6899 64.7973 18.6675L64.9265 17.8851C64.9309 17.8442 64.9503 17.8065 64.9809 17.7795C65.0115 17.7526 65.0511 17.7383 65.0917 17.7396H66.9585C67.0677 17.7396 67.1237 17.8153 67.1021 17.9302L65.7264 26.7082ZM67.7067 13.9992C67.7067 14.6464 67.3951 14.9707 66.8637 14.9707C66.387 14.9707 66.1127 14.7031 66.1127 14.2436C66.1127 13.6342 66.4602 13.291 66.9743 13.291C67.4511 13.2939 67.7067 13.5601 67.7067 13.9992Z" fill="#BABABA"/>
<path d="M74.0483 27.4706C74.1282 26.8546 74.2697 26.2485 74.4705 25.6614C74.5437 25.4128 74.3972 25.4317 74.2866 25.5276C73.5356 26.4613 72.5275 27.0532 71.3169 27.0532C69.2648 27.0532 68.1461 25.7007 68.1461 23.4509C68.1461 20.9932 69.3567 17.5451 72.931 17.5451C73.7559 17.5317 74.5724 17.7145 75.3148 18.0788L76.4881 18.6315C76.5292 18.6458 76.5633 18.6754 76.5836 18.7143C76.6038 18.7532 76.6087 18.7985 76.5972 18.8409L74.7304 30.731C74.7271 30.773 74.7082 30.812 74.6776 30.8404C74.6469 30.8687 74.6067 30.8842 74.5652 30.8837H73.7036C73.593 30.8837 73.5385 30.8067 73.56 30.6918L74.0483 27.4706ZM74.6543 19.0867C74.1028 18.8263 73.5022 18.6899 72.8937 18.6867C70.2542 18.6867 69.338 21.5633 69.338 23.3928C69.338 24.975 70.0891 25.9087 71.4634 25.9087C73.3302 25.9087 74.581 24.1941 74.9286 21.9079L75.3148 19.4357L74.6543 19.0867Z" fill="#BABABA"/>
<path d="M84.1192 25.5986C84.1006 25.4081 84.0087 25.3892 83.8435 25.5405C83.0006 26.5512 81.9551 27.0456 80.7086 27.0456C78.6622 27.0529 77.657 25.5986 78.0275 23.3169L78.8891 17.8866C78.8921 17.8446 78.9109 17.8053 78.9416 17.7769C78.9723 17.7484 79.0127 17.7331 79.0543 17.7339H79.9159C80.0251 17.7339 80.0796 17.811 80.0595 17.9244L79.2151 23.3052C78.9581 24.9631 79.5813 25.9157 80.9025 25.9157C82.7536 25.9157 84.0618 24.4687 84.4395 22.0488L85.1001 17.8939C85.1047 17.8532 85.1242 17.8156 85.1548 17.7887C85.1853 17.7618 85.2247 17.7475 85.2652 17.7485H86.1268C86.2374 17.7485 86.292 17.8241 86.2704 17.939L84.9134 26.7228C84.9087 26.7635 84.8892 26.801 84.8587 26.8279C84.8281 26.8549 84.7887 26.8692 84.7482 26.8682H84.1623C84.0517 26.8682 83.9972 26.8115 84.0187 26.6966L84.1192 25.5986Z" fill="#BABABA"/>
<path d="M88.5121 23.3751C88.4762 24.9559 89.2818 25.9099 90.8098 25.9099C91.4168 25.9073 92.0208 25.8237 92.6063 25.6612L93.2295 25.4896C93.3387 25.4518 93.3947 25.5099 93.4119 25.6234L93.5038 26.4043C93.5088 26.4254 93.5094 26.4473 93.5056 26.4687C93.5018 26.49 93.4936 26.5103 93.4815 26.5282C93.4695 26.5461 93.4539 26.5613 93.4357 26.5728C93.4175 26.5843 93.3972 26.5918 93.376 26.5948L92.747 26.7621C92.1038 26.9532 91.4371 27.0512 90.7667 27.0529C88.5667 27.0529 87.3202 25.6612 87.3202 23.3562C87.3202 20.9741 88.604 17.5391 92.0692 17.5391C93.9576 17.5391 95.0576 18.4349 95.0576 19.9212C95.0576 21.3493 94.1586 22.4356 92.0692 22.7788L88.5121 23.3751ZM91.94 21.7754C93.4248 21.5267 93.8657 20.7574 93.8657 20.0797C93.8657 19.2071 93.1879 18.6879 92.0146 18.6879C90.2727 18.6879 89.0075 19.9066 88.5681 22.3236L91.94 21.7754Z" fill="#BABABA"/>
<path d="M100.941 17.7355C101.052 17.7355 101.106 17.8126 101.085 17.926L100.955 18.707C100.951 18.7477 100.931 18.7852 100.901 18.8121C100.87 18.839 100.831 18.8534 100.79 18.8524H98.7239L97.8249 24.6448C97.6971 25.465 97.9685 25.9027 98.5759 25.9027C98.7495 25.8961 98.9218 25.8707 99.09 25.8271C99.1115 25.816 99.1352 25.8102 99.1593 25.8102C99.1833 25.8102 99.2071 25.8159 99.2285 25.827C99.2499 25.8381 99.2685 25.8541 99.2826 25.8739C99.2967 25.8936 99.306 25.9164 99.3098 25.9405L99.5108 26.6269C99.5241 26.6699 99.5222 26.7162 99.5054 26.7578C99.4887 26.7995 99.4581 26.834 99.4189 26.8553C99.1097 26.9789 98.7806 27.0435 98.4481 27.0458C97.0724 27.0458 96.3946 26.1499 96.633 24.6259L97.5319 18.8524H96.7076C96.597 18.8524 96.5425 18.7768 96.564 18.6619L96.6933 17.8809C96.6979 17.8402 96.7174 17.8027 96.748 17.7758C96.7785 17.7489 96.8179 17.7345 96.8584 17.7355H97.72L98.0676 15.4305C98.0862 15.3345 98.1236 15.2778 98.2112 15.2589L99.1475 14.9535C99.2566 14.9157 99.3299 14.9927 99.3112 15.1251L98.9077 17.7428L100.941 17.7355Z" fill="#BABABA"/>
<path d="M102.537 23.3765C102.499 24.9573 103.306 25.9099 104.834 25.9099C105.442 25.9078 106.046 25.8246 106.632 25.6626L107.255 25.491C107.365 25.4532 107.419 25.5099 107.438 25.6248L107.53 26.4058C107.534 26.4268 107.535 26.4487 107.531 26.4699C107.527 26.4912 107.519 26.5114 107.507 26.5293C107.495 26.5472 107.479 26.5623 107.461 26.5739C107.443 26.5854 107.423 26.593 107.402 26.5963L106.771 26.7621C106.131 26.9525 105.466 27.0505 104.798 27.0529C102.598 27.0529 101.352 25.6626 101.352 23.3562C101.352 20.9755 102.636 17.5391 106.101 17.5391C107.989 17.5391 109.088 18.4349 109.088 19.9212C109.088 21.3507 108.19 22.4371 106.099 22.7803L102.537 23.3765ZM105.964 21.7768C107.449 21.5296 107.889 20.7676 107.89 20.0811C107.89 19.2086 107.211 18.6908 106.038 18.6908C104.297 18.6908 103.032 19.9095 102.591 22.3265L105.964 21.7768Z" fill="#BABABA"/>
<path d="M118.797 21.1866C118.797 23.6254 117.421 27.0735 113.608 27.0735C111.117 27.0735 109.681 25.5872 109.681 23.1862C109.681 20.714 111.094 17.2979 114.888 17.2993C117.367 17.2993 118.797 18.7856 118.797 21.1866ZM112.527 22.9812C112.527 23.8959 112.949 24.4107 113.7 24.4107C115.313 24.4107 115.955 22.5042 115.955 21.4004C115.955 20.4856 115.551 19.9897 114.806 19.9897C113.127 19.9854 112.527 21.9094 112.527 22.9812Z" fill="#D9201D"/>
<path d="M121.456 16.5822C121.86 14.1434 123.467 12.7909 125.819 12.7909C126.321 12.7835 126.819 12.8739 127.287 13.0571L127.689 13.1909C127.722 13.1977 127.754 13.2129 127.78 13.2351C127.806 13.2572 127.827 13.2856 127.84 13.3178C127.853 13.3499 127.857 13.3848 127.854 13.4192C127.85 13.4537 127.838 13.4867 127.818 13.5152L126.883 15.5352C126.874 15.5663 126.857 15.5948 126.836 15.6189C126.814 15.643 126.787 15.662 126.758 15.6746C126.728 15.6872 126.696 15.6931 126.664 15.6919C126.632 15.6906 126.6 15.6823 126.572 15.6675L126.333 15.5919C126.141 15.5123 125.935 15.4732 125.727 15.477C125.031 15.477 124.464 16.0485 124.334 16.8106L124.206 17.5159H126.26C126.424 17.5159 126.498 17.6119 126.48 17.7835L126.111 19.9271C126.11 19.9595 126.102 19.9913 126.089 20.0207C126.075 20.05 126.056 20.0762 126.032 20.0977C126.008 20.1191 125.98 20.1353 125.949 20.1452C125.919 20.1551 125.887 20.1586 125.855 20.1554H123.783L122.664 26.6342C122.663 26.6666 122.656 26.6985 122.642 26.7279C122.628 26.7572 122.609 26.7834 122.585 26.8048C122.56 26.8262 122.532 26.8424 122.502 26.8523C122.471 26.8623 122.439 26.8657 122.407 26.8625H119.966C119.801 26.8625 119.727 26.7665 119.745 26.5964L120.846 20.1554H119.928C119.763 20.1554 119.69 20.0609 119.709 19.8893L120.058 17.7355C120.059 17.703 120.066 17.6711 120.08 17.6418C120.094 17.6124 120.113 17.5862 120.137 17.5648C120.161 17.5434 120.19 17.5273 120.22 17.5173C120.251 17.5074 120.283 17.504 120.315 17.5072H121.286L121.456 16.5822Z" fill="#D9201D"/>
<path d="M131.849 26.8452C131.298 26.9904 130.731 27.0676 130.162 27.075C127.541 27.075 126.165 25.5872 126.165 23.2066C126.165 20.6529 127.522 17.2993 131.318 17.2993C133.426 17.2993 134.654 18.3668 134.654 20.1003C134.654 21.5676 134.14 22.8256 131.391 23.1877L128.934 23.5105C128.988 24.0253 129.356 24.5023 130.235 24.5023C130.735 24.5031 131.233 24.4455 131.72 24.3307L132.784 24.0835C132.949 24.0457 133.04 24.1213 133.058 24.2929L133.242 26.2737C133.249 26.3063 133.249 26.3401 133.242 26.3728C133.236 26.4055 133.222 26.4365 133.203 26.4638C133.184 26.4911 133.16 26.5141 133.132 26.5314C133.104 26.5488 133.072 26.56 133.04 26.5645L131.849 26.8452ZM131.153 21.3015C131.703 21.2055 131.941 20.9016 131.941 20.5205C131.941 20.0843 131.721 19.8719 131.17 19.8719C130.291 19.8719 129.539 20.3082 129.08 21.5676L131.153 21.3015Z" fill="#D9201D"/>
<path d="M141.693 19.7581C141.692 19.7905 141.685 19.8224 141.671 19.8518C141.657 19.8811 141.638 19.9073 141.614 19.9287C141.589 19.9501 141.561 19.9663 141.531 19.9762C141.5 19.9861 141.468 19.9896 141.436 19.9864C139.401 20.062 138.594 21.2443 137.935 25.0764L137.684 26.6368C137.682 26.6692 137.675 26.701 137.661 26.7302C137.647 26.7595 137.628 26.7856 137.604 26.8069C137.58 26.8283 137.552 26.8445 137.521 26.8545C137.491 26.8645 137.459 26.8681 137.427 26.8651H134.985C134.82 26.8651 134.747 26.7691 134.766 26.5975L136.248 17.7454C136.249 17.7129 136.256 17.681 136.27 17.6517C136.284 17.6223 136.303 17.5961 136.327 17.5747C136.351 17.5533 136.38 17.5371 136.41 17.5272C136.441 17.5173 136.473 17.5138 136.505 17.517H137.789C137.85 17.5146 137.911 17.5316 137.962 17.5658C138.014 17.5999 138.053 17.6495 138.076 17.7075L138.425 18.4507C138.534 18.679 138.607 18.7546 138.864 18.5074C139.799 17.6508 140.569 17.344 141.834 17.3076C142.018 17.3076 142.091 17.4021 142.054 17.5737L141.693 19.7581Z" fill="#D9201D"/>
<path d="M149.061 17.5102C149.227 17.5102 149.3 17.6061 149.283 17.7777L148.915 19.9301C148.914 19.9625 148.906 19.9944 148.893 20.0238C148.879 20.0531 148.86 20.0793 148.835 20.1007C148.811 20.1221 148.783 20.1383 148.753 20.1482C148.722 20.1581 148.69 20.1616 148.658 20.1584H146.587L145.981 23.6268C145.891 24.1228 146.019 24.4078 146.33 24.4078C146.492 24.4134 146.654 24.3878 146.807 24.3322C146.834 24.3121 146.867 24.2995 146.9 24.2957C146.934 24.2918 146.968 24.2967 146.999 24.31C147.031 24.3233 147.058 24.3444 147.079 24.3715C147.1 24.3985 147.113 24.4306 147.119 24.4645L147.669 26.3129C147.69 26.3736 147.689 26.4401 147.665 26.4999C147.641 26.5597 147.596 26.6085 147.539 26.6372C147.025 26.9122 146.454 27.0616 145.872 27.0735C143.745 27.0735 142.7 25.7966 143.067 23.6254L143.653 20.1569H142.737C142.572 20.1569 142.499 20.0624 142.517 19.8908L142.866 17.737C142.867 17.7046 142.875 17.6728 142.888 17.6434C142.902 17.6141 142.921 17.5879 142.945 17.5664C142.969 17.545 142.997 17.5288 143.028 17.5189C143.058 17.509 143.09 17.5055 143.122 17.5087H144.094L144.442 15.4131C144.448 15.3532 144.472 15.2967 144.512 15.252C144.552 15.2072 144.605 15.1765 144.663 15.1644L147.265 14.3078C147.449 14.2511 147.552 14.3457 147.522 14.5362L147.009 17.5087L149.061 17.5102Z" fill="#D9201D"/>
<path d="M155.478 26.0347C155.405 25.5781 155.334 25.501 154.855 26.0158C154.555 26.3647 154.182 26.6415 153.764 26.8262C153.345 27.0108 152.891 27.0986 152.435 27.0833C150.344 27.0833 149.116 25.7482 149.116 23.481C149.116 20.8328 150.638 17.3076 154.708 17.3076C155.345 17.3206 155.978 17.404 156.596 17.5563L158.594 18.0129C158.738 18.0522 158.796 18.1467 158.778 18.3183L157.366 26.6441C157.365 26.6766 157.358 26.7085 157.344 26.7379C157.33 26.7674 157.311 26.7936 157.287 26.8152C157.263 26.8367 157.234 26.853 157.204 26.8631C157.173 26.8732 157.141 26.8768 157.109 26.8738H155.807C155.775 26.8768 155.743 26.8732 155.712 26.8631C155.682 26.853 155.654 26.8366 155.63 26.8151C155.606 26.7936 155.586 26.7673 155.573 26.7378C155.559 26.7084 155.552 26.6765 155.551 26.6441L155.478 26.0347ZM155.277 20.0896C155.05 20.0224 154.815 19.9905 154.579 19.9951C152.728 19.9951 151.958 22.1096 151.958 23.2149C151.958 23.958 152.362 24.4147 153.021 24.4147C154.158 24.4147 155.031 23.0244 155.44 20.872L155.57 20.1667L155.277 20.0896Z" fill="#D9201D"/>
<path d="M161.821 23.0568C160.372 22.6743 159.675 21.9894 159.675 20.8071C159.675 19.0925 160.739 17.3022 163.617 17.3022C164.447 17.3194 165.271 17.4345 166.074 17.6455L166.991 17.8927C167.025 17.8948 167.057 17.9061 167.086 17.9255C167.114 17.9448 167.136 17.9714 167.151 18.0026C167.166 18.0337 167.172 18.0683 167.169 18.1027C167.166 18.137 167.154 18.17 167.134 18.1981L166.261 20.1788C166.251 20.2096 166.234 20.238 166.213 20.2624C166.191 20.2867 166.166 20.3066 166.137 20.3208C166.108 20.335 166.076 20.3432 166.044 20.3451C166.012 20.3469 165.98 20.3423 165.949 20.3315L165.125 20.1032C164.603 19.9704 164.068 19.8939 163.53 19.8749C162.869 19.8749 162.484 20.0843 162.484 20.4464C162.484 20.5918 162.595 20.7503 162.852 20.8274L164.354 21.2084C165.803 21.5895 166.535 22.3326 166.535 23.5905C166.535 25.1524 165.638 27.0808 162.612 27.0808C161.654 27.086 160.699 26.9642 159.772 26.7187L158.794 26.4715C158.628 26.4133 158.574 26.2998 158.65 26.1472L159.566 24.2231C159.586 24.1645 159.629 24.1163 159.684 24.0891C159.739 24.0618 159.802 24.0578 159.861 24.0777L160.579 24.2682C161.276 24.4307 161.988 24.5199 162.704 24.5344C163.365 24.5344 163.749 24.306 163.749 23.8872C163.749 23.6778 163.676 23.5251 163.31 23.4509L161.821 23.0568Z" fill="#D9201D"/>
<path d="M168.353 27.0762C167.83 27.0759 167.317 27.2329 166.882 27.5274C166.446 27.8219 166.106 28.2406 165.906 28.7306C165.705 29.2206 165.653 29.7598 165.755 30.2801C165.857 30.8004 166.109 31.2784 166.479 31.6536C166.849 32.0288 167.321 32.2843 167.835 32.3879C168.348 32.4915 168.881 32.4385 169.365 32.2355C169.849 32.0326 170.263 31.6889 170.554 31.2479C170.845 30.8068 171 30.2883 171 29.7579C171 29.0469 170.721 28.365 170.225 27.8621C169.729 27.3593 169.055 27.0766 168.353 27.0762ZM168.353 32.0934C167.897 32.0931 167.452 31.9559 167.072 31.6991C166.693 31.4423 166.398 31.0774 166.224 30.6506C166.049 30.2238 166.004 29.7543 166.093 29.3013C166.182 28.8484 166.402 28.4323 166.725 28.1058C167.047 27.7794 167.458 27.5571 167.905 27.4671C168.353 27.3771 168.816 27.4234 169.238 27.6002C169.659 27.777 170.019 28.0764 170.272 28.4604C170.526 28.8445 170.661 29.296 170.661 29.7579C170.661 30.0648 170.601 30.3688 170.485 30.6523C170.369 30.9359 170.199 31.1935 169.985 31.4104C169.77 31.6273 169.516 31.7993 169.235 31.9165C168.955 32.0337 168.655 32.0938 168.352 32.0934H168.353Z" fill="#D9201D"/>
<path d="M167.302 28.3518C167.61 28.3097 167.921 28.2897 168.231 28.2922C168.671 28.2922 168.987 28.3533 169.204 28.5162C169.298 28.5911 169.373 28.688 169.423 28.7985C169.473 28.9091 169.496 29.0302 169.491 29.1517C169.486 29.3046 169.437 29.4527 169.35 29.5778C169.263 29.7029 169.142 29.7994 169.001 29.8555V29.8686C169.188 29.9544 169.288 30.1406 169.367 30.3907C169.452 30.6888 169.547 31.1178 169.601 31.224H168.817C168.729 31.0067 168.661 30.7812 168.616 30.5507C168.54 30.2046 168.434 30.1319 168.195 30.1319H168.07V31.224H167.308L167.302 28.3518ZM168.066 29.5705H168.272C168.559 29.5705 168.728 29.4251 168.728 29.2113C168.728 28.9975 168.585 28.871 168.332 28.871C168.245 28.8656 168.157 28.8715 168.072 28.8884L168.066 29.5705Z" fill="#D9201D"/>
<path d="M13.114 28.199C13.1709 28.2869 13.2443 28.3626 13.3302 28.4217C13.416 28.4808 13.5124 28.5222 13.6141 28.5435C13.7157 28.5649 13.8205 28.5657 13.9224 28.546C14.0244 28.5263 14.1215 28.4865 14.2082 28.4288L17.5772 26.1906C17.6722 26.1373 17.7554 26.0647 17.8215 25.9774C17.8876 25.8901 17.9353 25.7899 17.9615 25.6831C17.9877 25.5763 17.9919 25.4652 17.9739 25.3567C17.9558 25.2482 17.9159 25.1446 17.8566 25.0524C17.7973 24.9602 17.7199 24.8813 17.6291 24.8208C17.5384 24.7602 17.4364 24.7192 17.3293 24.7003C17.2223 24.6815 17.1125 24.6851 17.0069 24.7111C16.9013 24.7371 16.8022 24.7848 16.7156 24.8512L13.3466 27.0894C13.2593 27.1467 13.184 27.2209 13.1251 27.3077C13.0661 27.3945 13.0246 27.4923 13.003 27.5953C12.9814 27.6984 12.9801 27.8048 12.9991 27.9083C13.0182 28.0119 13.0572 28.1107 13.114 28.199V28.199Z" fill="#D9201D"/>
<path d="M15.5265 33.6756C15.5834 33.7635 15.6569 33.8392 15.7427 33.8983C15.8285 33.9574 15.925 33.9988 16.0266 34.0202C16.1282 34.0415 16.233 34.0424 16.335 34.0227C16.4369 34.003 16.534 33.9631 16.6208 33.9054L23.3084 29.4597C23.4035 29.4063 23.4866 29.3337 23.5528 29.2464C23.6189 29.1591 23.6665 29.0589 23.6927 28.9521C23.719 28.8453 23.7232 28.7342 23.7051 28.6257C23.6871 28.5172 23.6471 28.4136 23.5878 28.3214C23.5285 28.2292 23.4511 28.1504 23.3604 28.0898C23.2697 28.0293 23.1676 27.9883 23.0605 27.9694C22.9535 27.9505 22.8438 27.9542 22.7382 27.9801C22.6326 28.0061 22.5334 28.0538 22.4468 28.1203L15.7606 32.566C15.6732 32.6232 15.5977 32.6973 15.5386 32.7841C15.4796 32.8708 15.4379 32.9686 15.4162 33.0716C15.3945 33.1747 15.393 33.2811 15.4119 33.3848C15.4309 33.4884 15.4698 33.5872 15.5265 33.6756V33.6756Z" fill="#D9201D"/>
<path d="M39.2543 6.94577L9.16628 0.155754C8.21321 -0.0505575 7.22798 -0.051924 6.27436 0.151744C5.32073 0.355412 4.41996 0.759575 3.63032 1.33808L1.45902 2.78217C0.564366 3.37552 0.00718023 4.48659 0 5.60056C0.0465965 6.13419 0.209482 6.65071 0.476923 7.11292C0.744363 7.57512 1.1097 7.97151 1.54662 8.27352L23.7048 21.1686L29.2752 17.4645C29.362 17.4054 29.4596 17.3643 29.5622 17.3437C29.6648 17.323 29.7704 17.3231 29.873 17.344C29.9756 17.365 30.073 17.4063 30.1597 17.4656C30.2464 17.5249 30.3206 17.6011 30.378 17.6896C30.4355 17.7782 30.475 17.8774 30.4943 17.9815C30.5136 18.0856 30.5124 18.1926 30.4906 18.2962C30.4689 18.3998 30.427 18.4981 30.3675 18.5852C30.3081 18.6724 30.2321 18.7467 30.144 18.8039L24.5722 22.508L27.4443 48.2225C27.544 48.7486 27.7576 49.2457 28.0697 49.6782C28.3818 50.1107 28.7847 50.4678 29.2494 50.7238C30.2618 51.1601 31.491 51.0845 32.3843 50.4897L34.5556 49.0456C35.3938 48.542 36.1183 47.8657 36.6821 47.0605C37.2458 46.2554 37.6363 45.3393 37.8283 44.3715L43.64 13.7154C43.9205 12.2312 43.6196 10.6946 42.801 9.4311C41.9824 8.16757 40.7104 7.27623 39.2543 6.94577V6.94577Z" fill="url(#paint0_linear_327_111)"/>
<path d="M29.2508 50.7241C30.2632 51.1604 31.4925 51.0848 32.3857 50.49L34.557 49.0459C35.3953 48.5422 36.1197 47.866 36.6835 47.0608C37.2473 46.2556 37.6378 45.3395 37.8298 44.3718L43.6414 13.7157C43.9219 12.2312 43.6208 10.6945 42.8019 9.43095C41.983 8.16739 40.7107 7.27618 39.2543 6.94604V6.94604C37.5182 6.5552 35.7184 6.55642 33.9827 6.9496C32.2471 7.34278 30.6183 8.11827 29.2121 9.22096C27.8059 10.3236 26.6568 11.7265 25.8464 13.3297C25.036 14.933 24.5843 16.6973 24.5234 18.4973C24.4961 19.3205 24.4932 20.0447 24.5018 20.6424L29.281 17.4648C29.3678 17.4057 29.4653 17.3646 29.5679 17.3439C29.6706 17.3232 29.7762 17.3234 29.8787 17.3443C29.9813 17.3652 30.0787 17.4065 30.1654 17.4659C30.2521 17.5252 30.3263 17.6013 30.3838 17.6899C30.4412 17.7784 30.4807 17.8776 30.5001 17.9818C30.5194 18.0859 30.5181 18.1929 30.4964 18.2965C30.4746 18.4001 30.4328 18.4983 30.3733 18.5855C30.3138 18.6726 30.2378 18.747 30.1498 18.8042L24.5779 22.5082L27.45 48.2227C27.5493 48.7484 27.7622 49.2454 28.0735 49.6778C28.3849 50.1103 28.7869 50.4676 29.2508 50.7241V50.7241Z" fill="url(#paint1_linear_327_111)"/>
<path d="M20.3588 26.2677C20.4157 26.3556 20.4892 26.4313 20.575 26.4904C20.6608 26.5495 20.7573 26.5909 20.8589 26.6123C20.9606 26.6336 21.0653 26.6345 21.1673 26.6148C21.2692 26.5951 21.3664 26.5552 21.4531 26.4975L29.7362 20.9916C29.8957 20.8692 30.0034 20.6901 30.0377 20.4905C30.072 20.2908 30.0304 20.0855 29.9211 19.9157C29.8119 19.7459 29.6432 19.6243 29.449 19.5754C29.2549 19.5265 29.0496 19.554 28.8746 19.6522L20.5872 25.1625C20.4128 25.2789 20.2909 25.4604 20.2481 25.6674C20.2053 25.8745 20.2451 26.0903 20.3588 26.2677V26.2677Z" fill="url(#paint2_linear_327_111)"/>
<path d="M10.8666 24.3056C10.9685 24.3274 11.0736 24.3284 11.1759 24.3087C11.2782 24.289 11.3756 24.2489 11.4625 24.1908L16.0507 21.0902C16.2102 20.9678 16.3179 20.7888 16.3522 20.5891C16.3865 20.3895 16.3449 20.1841 16.2356 20.0143C16.1264 19.8445 15.9577 19.7229 15.7635 19.6741C15.5694 19.6252 15.3641 19.6526 15.1891 19.7508L10.5937 22.8499C10.463 22.9369 10.3606 23.0611 10.2995 23.2069C10.2385 23.3528 10.2215 23.5137 10.2507 23.6693C10.2799 23.8249 10.354 23.9683 10.4636 24.0813C10.5732 24.1943 10.7134 24.2719 10.8666 24.3042V24.3056Z" fill="#970000"/>
<path d="M9.55834 27.2916L8.56316 27.9533C8.40371 28.0757 8.29598 28.2548 8.26166 28.4544C8.22735 28.6541 8.269 28.8595 8.37822 29.0292C8.48744 29.199 8.65613 29.3206 8.85032 29.3695C9.04451 29.4184 9.24977 29.3909 9.42479 29.2927L10.42 28.6296C10.5829 28.5086 10.6939 28.3291 10.7301 28.1278C10.7663 27.9265 10.725 27.7188 10.6146 27.5475C10.5043 27.3761 10.3333 27.2541 10.1368 27.2065C9.94033 27.1589 9.73332 27.1894 9.55834 27.2916Z" fill="#970000"/>
<path opacity="0.6" d="M39.2543 6.94577L9.16628 0.155754C8.21321 -0.0505575 7.22798 -0.051924 6.27436 0.151744C5.32073 0.355412 4.41996 0.759575 3.63032 1.33808L1.45902 2.78218C0.564366 3.37552 0.00718023 4.48659 0 5.60056C0.0465965 6.13419 0.209482 6.65071 0.476923 7.11292C0.744363 7.57512 1.1097 7.97151 1.54662 8.27352V8.27352C4.29052 9.8689 7.48617 10.4787 10.6152 10.0041C19.2315 8.69526 37.3386 7.40968 42.7683 18.3138L43.64 13.7154C43.9205 12.2312 43.6196 10.6946 42.801 9.43111C41.9824 8.16758 40.7104 7.27623 39.2543 6.94577V6.94577Z" fill="#D9201D"/>
<defs>
<linearGradient id="paint0_linear_327_111" x1="0.00143605" y1="25.5009" x2="43.7477" y2="25.5009" gradientUnits="userSpaceOnUse">
<stop stop-color="#D9201D"/>
<stop offset="1" stop-color="#970000"/>
</linearGradient>
<linearGradient id="paint1_linear_327_111" x1="34.1205" y1="6.64646" x2="34.1205" y2="51.0004" gradientUnits="userSpaceOnUse">
<stop stop-color="#EEC02D"/>
<stop offset="0.4" stop-color="#E27E1E"/>
<stop offset="1" stop-color="#D9201D"/>
</linearGradient>
<linearGradient id="paint2_linear_327_111" x1="20.2325" y1="23.0727" x2="30.0967" y2="23.0727" gradientUnits="userSpaceOnUse">
<stop stop-color="#D9201D"/>
<stop offset="0.47" stop-color="#DE7B26"/>
<stop offset="0.98" stop-color="#E28B26"/>
</linearGradient>
</defs>
</svg>
