<svg width="64" height="41" viewBox="0 0 64 41" fill="none" xmlns="http://www.w3.org/2000/svg">
<g clip-path="url(#clip0_21_599)">
<path d="M9.11546 41L11.7262 27.982H15.9742L13.3782 41H9.11546ZM21.9332 36.7393H24.6324L23.9392 31.9626L21.9332 36.7393ZM15.9742 41L22.4052 27.982H26.5941L29.2344 41H25.2962L25.0602 39.452H20.8712L20.2074 41H15.9742ZM33.1431 41L34.6034 31.2107H30.8864L31.5206 27.923H42.9371L42.3028 31.2107H38.7628L37.3321 41H33.1431ZM47.4211 36.7393H50.1203L49.4271 31.9626L47.4211 36.7393ZM41.4768 41L47.8931 27.982H52.0821L54.7223 41H50.7546L50.5628 39.452H46.3738L45.7101 41H41.4768ZM64 13.2686H44.0138C43.2763 16.9248 40.7393 19.9766 35.6801 22.0848C36.2554 23.8245 38.2171 25.4315 40.2526 25.4315H51.0938C52.7458 25.4315 54.0585 24.0456 54.5895 22.9252H43.5713C42.8928 22.8072 42.8633 22.2617 43.5418 22.2028H54.3683C55.7695 22.2028 57.038 21.0086 57.7755 19.7112H45.1643C44.5301 19.608 44.5301 19.0773 45.1643 18.9741H57.8788C59.162 18.9741 60.3273 17.485 60.814 16.4825H46.8606C46.1673 16.3941 46.1673 15.7454 46.8606 15.7306H61.0648C62.171 15.7306 63.2478 14.5217 64 13.2686ZM0 13.2686H19.9862C20.7089 16.9248 23.2607 19.9766 28.3051 22.0848C27.7299 23.8245 25.7681 25.4315 23.7327 25.4315H12.9062C11.2542 25.4315 9.94146 24.0456 9.41046 22.9252H20.4287C21.0924 22.8072 21.1367 22.2617 20.4582 22.2028H9.61696C8.21572 22.2028 6.94722 21.0086 6.22448 19.7112H18.8504C19.4847 19.608 19.4847 19.0773 18.8504 18.9741H6.13598C4.85273 18.9741 3.68749 17.485 3.20074 16.4825H17.1542C17.8474 16.3941 17.8474 15.7454 17.1542 15.7306H2.94999C1.82899 15.7306 0.752247 14.5217 0 13.2686ZM25.5174 2.29986C26.2549 2.93381 27.0809 3.49404 27.9659 3.84787C28.7181 2.37358 29.7654 1.10569 30.9749 -0.0147705C28.9836 0.250602 27.1104 1.00249 25.5174 2.29986ZM21.9774 9.56811H26.4319C26.5351 7.73999 26.9186 6.13302 27.6414 4.48181C26.6531 4.03953 25.7976 3.50878 24.9717 2.80112C23.1279 4.64399 22.1102 7.01759 21.9774 9.56811ZM31.6534 5.39587V9.56811H27.1989C27.2284 7.93165 27.6119 6.25096 28.3051 4.73244C29.3671 5.11576 30.5176 5.36639 31.6534 5.39587ZM38.4826 2.29986C37.7599 2.93381 36.9044 3.49404 36.0341 3.84787C35.2376 2.34409 34.2494 1.13518 33.0104 -2.761e-05C35.0164 0.250602 36.8896 1.00249 38.4826 2.29986ZM42.0078 9.56811H37.5681C37.5091 7.76948 37.0961 6.08879 36.3881 4.48181C37.3321 4.03953 38.2318 3.4793 39.0136 2.80112C40.9311 4.7177 41.9193 7.07656 42.0078 9.56811ZM32.3761 5.39587V9.56811H36.8011C36.8011 7.88742 36.3881 6.28045 35.6949 4.73244C34.6329 5.11576 33.4971 5.36639 32.3761 5.39587ZM25.5174 17.5735C26.2549 16.9985 27.1104 16.3646 27.9659 16.055C28.7624 17.544 29.7506 18.7677 30.9749 19.8734C28.9836 19.608 27.0809 18.8561 25.5174 17.5735ZM21.9774 10.2905H26.4319C26.5351 12.1334 26.9186 13.7551 27.6414 15.421C26.6531 15.8633 25.7976 16.3941 24.9717 17.087C23.1574 15.2589 22.1102 12.8853 21.9774 10.2905ZM31.6534 14.4775V10.2905H27.1989C27.2284 11.9712 27.6119 13.6372 28.3051 15.1262C29.3671 14.7429 30.5176 14.507 31.6534 14.4775ZM38.4826 17.5735C37.7894 16.969 36.9044 16.4088 36.0341 16.055C35.2376 17.544 34.2494 18.7677 33.0104 19.8734C35.0164 19.608 36.8896 18.8561 38.4826 17.5735ZM42.0078 10.2905H37.5681C37.5091 12.1334 37.1109 13.7698 36.3881 15.421C37.3321 15.8633 38.1876 16.3941 39.0136 17.087C40.8426 15.2589 41.9193 12.8263 42.0078 10.2905ZM32.3761 14.4775V10.2905H36.8011C36.8011 11.9712 36.3881 13.6077 35.6949 15.1262C34.6624 14.7429 33.4676 14.507 32.3761 14.4775ZM31.6534 0.412773C30.4439 1.3858 29.3671 2.71267 28.6591 4.0985C29.6179 4.42284 30.6356 4.68821 31.6534 4.68821V0.412773ZM32.3761 0.412773C33.5561 1.3858 34.6329 2.66844 35.3409 4.0985C34.3821 4.45233 33.3644 4.68821 32.3761 4.68821V0.412773ZM31.6534 19.4606C30.4439 18.5023 29.3671 17.1754 28.6591 15.7601C29.6179 15.421 30.6356 15.2294 31.6534 15.2294V19.4606ZM32.3761 19.4901C33.5561 18.5023 34.6329 17.1754 35.3409 15.7601C34.3821 15.4505 33.3644 15.2294 32.3761 15.2294V19.4901Z" fill="white"/>
</g>
<defs>
<clipPath id="clip0_21_599">
<rect width="64" height="41" fill="white"/>
</clipPath>
</defs>
</svg>
