<svg width="44" height="29" viewBox="0 0 44 29" fill="none" xmlns="http://www.w3.org/2000/svg">
<path d="M43.4624 0.600128C43.4624 0.598687 43.4617 0.596512 43.4617 0.595063C43.445 0.504593 43.4139 0.422078 43.3662 0.346806C43.3654 0.346082 43.3654 0.344635 43.3654 0.343911C43.3647 0.342463 43.3633 0.34174 43.3625 0.340292C43.317 0.269361 43.2619 0.208563 43.1946 0.157175C43.1809 0.146318 43.1664 0.138356 43.1519 0.128224C43.0976 0.0927577 43.0419 0.0630833 42.979 0.0435405C42.9391 0.0297892 42.8985 0.0254457 42.8574 0.018932C42.8255 0.0145892 42.7972 0.000113161 42.764 0.000113161H42.7611C42.7329 -0.000609918 42.7133 0.00228495 42.6931 0.00445675C42.6865 0.00518068 42.6807 0.00445589 42.6742 0.00517982C42.6677 0.00590376 42.6605 0.00517984 42.6532 0.0066277C42.6337 0.00952258 42.6141 0.0124174 42.5953 0.0167602L0.577496 8.70002C0.278573 8.76227 0.0498578 9.00468 0.00715457 9.30722C-0.0355487 9.60975 0.115722 9.90657 0.385694 10.0491L12.4236 16.3989L14.5349 28.1148C14.5335 28.1235 14.5357 28.1329 14.5349 28.1416C14.5277 28.1995 14.527 28.2559 14.5342 28.3131C14.5378 28.342 14.5415 28.3696 14.5487 28.3978C14.5653 28.4665 14.5921 28.531 14.6283 28.5918C14.6355 28.6033 14.6355 28.6171 14.6435 28.6286C14.6457 28.6323 14.6493 28.6352 14.6522 28.6381C14.6616 28.6518 14.6747 28.6626 14.6855 28.6765C14.7195 28.7184 14.755 28.7568 14.7955 28.7894C14.802 28.7944 14.8064 28.8024 14.8136 28.8074C14.8245 28.8154 14.8368 28.8176 14.8476 28.8248C14.8918 28.8537 14.9374 28.8776 14.9859 28.8965C15.0054 28.9037 15.0235 28.9124 15.0438 28.9182C15.1089 28.937 15.1762 28.95 15.2443 28.95C15.2449 28.95 15.2457 28.95 15.2464 28.95C15.2493 28.95 15.2522 28.9486 15.2551 28.9486C15.2674 28.9493 15.2797 28.95 15.292 28.95C15.4925 28.95 15.6735 28.8603 15.8074 28.722L23.8261 23.3761L32.222 28.8335C32.3407 28.9102 32.4783 28.95 32.6165 28.95C32.6925 28.95 32.77 28.9377 32.8445 28.9131C33.053 28.8436 33.2194 28.6829 33.2954 28.4759L43.3821 1.09881C43.4494 0.989525 43.4878 0.859968 43.4878 0.72173C43.487 0.679743 43.4697 0.641389 43.4624 0.600128ZM35.0774 5.46613L17.7116 18.2351C17.6834 18.2561 17.6609 18.2822 17.6364 18.3067C17.6269 18.3154 17.6175 18.3227 17.6096 18.3321C17.5943 18.3488 17.5806 18.3654 17.5669 18.3835C17.5538 18.4009 17.5437 18.419 17.5321 18.437C17.5053 18.4805 17.4829 18.5254 17.4655 18.5731C17.4619 18.5825 17.4561 18.5898 17.4532 18.5992C17.4525 18.6021 17.4496 18.6036 17.4489 18.6065L15.4584 25.0749L13.8814 16.3237L35.0774 5.46613ZM16.5803 26.4675L18.5534 19.9505L21.6251 21.9474L22.5038 22.5185L19.5189 24.5082L16.5803 26.4675Z" fill="white"/>
</svg>
