<svg width="181" height="51" viewBox="0 0 181 51" fill="none" xmlns="http://www.w3.org/2000/svg">
<path d="M92.1521 19.0619C92.0772 18.9318 91.9952 18.806 91.9066 18.6852C91.7546 18.4818 91.583 18.2943 91.3944 18.1254C90.9459 17.7317 90.4076 17.4575 89.8282 17.3276C89.282 17.207 88.7245 17.1474 88.1655 17.1499C86.3313 17.1547 84.5614 17.8356 83.1863 19.0655C86.9378 19.6679 90.3982 21.2547 92.0293 24.5315L92.5748 21.5764C92.6674 21.1072 92.6674 20.624 92.5748 20.1548C92.5442 20.0122 92.5056 19.8716 92.459 19.7336C92.3797 19.4997 92.2768 19.2746 92.1521 19.0619Z" fill="white"/>
<path d="M66.0194 17.898L67.5593 18.7865C68.944 19.3065 70.4361 19.463 71.8966 19.2414C74.1118 18.8992 76.3486 18.721 78.5894 18.7083C79.9766 18.7034 81.3625 18.7948 82.7373 18.982C84.0703 17.7084 85.8004 16.9466 87.6289 16.8282L70.9881 13.0787C70.6858 13.0152 70.3778 12.983 70.0691 12.9828C69.1552 12.985 68.2651 13.2778 67.5242 13.8198L66.1649 14.7243C65.8827 14.9221 65.6517 15.1859 65.4914 15.4934C65.3311 15.8008 65.2463 16.1429 65.2441 16.4906C65.2717 16.8275 65.3755 17.1534 65.5476 17.4431C65.6853 17.6142 65.8438 17.7671 66.0194 17.898Z" fill="white"/>
<path d="M91.7277 24.6044C90.0966 21.3258 86.5047 19.9042 82.8601 19.3551C81.4694 20.7318 80.6581 22.6 80.5959 24.5689C80.5818 24.99 80.5801 25.3579 80.5818 25.6866L83.5511 23.7123C83.7827 23.5595 84.1176 23.4724 84.3772 23.8669C84.6368 24.2614 84.3772 24.5618 84.1194 24.7554L80.8817 26.9092L78.2194 28.6862C78.1644 28.7227 78.1171 28.7698 78.0802 28.8249C78.0432 28.8799 78.0173 28.9418 78.004 29.007C77.9906 29.0721 77.9901 29.1393 78.0023 29.2047C78.0146 29.2701 78.0395 29.3324 78.0755 29.3881C78.1116 29.4438 78.1581 29.4917 78.2124 29.5291C78.2668 29.5666 78.3278 29.5928 78.3922 29.6063C78.4565 29.6199 78.5228 29.6204 78.5874 29.608C78.6519 29.5955 78.7134 29.5703 78.7683 29.5338L80.7555 28.2082L82.4322 43.1901C82.4851 43.676 82.7158 44.1241 83.0788 44.4461C83.4418 44.7682 83.9107 44.9407 84.393 44.9298H84.4649L84.6403 44.9191L84.7736 44.9013L84.8823 44.8782C84.9402 44.864 84.9981 44.8516 85.0577 44.8338L85.0998 44.8178C85.25 44.767 85.3932 44.6972 85.526 44.6099L86.8993 43.6965C87.2928 43.4565 87.6477 43.1569 87.9516 42.808C88.4451 42.2309 88.7828 41.5343 88.932 40.7858L91.9136 25.054C91.8808 24.8934 91.8177 24.7407 91.7277 24.6044Z" fill="white"/>
<path d="M80.2556 25.9069C80.2556 25.4698 80.2556 25.0184 80.2697 24.5564C80.3311 22.5906 81.1053 20.7168 82.4445 19.2929C81.1647 19.1291 79.8759 19.0489 78.5859 19.053C76.3616 19.0682 74.1412 19.2464 71.9423 19.5861C71.4946 19.6536 71.0426 19.6874 70.59 19.6874C69.9723 19.6851 69.3564 19.619 68.752 19.4902L80.0294 26.0562L80.2556 25.9069Z" fill="white"/>
<path d="M73.5294 30.5023C73.6013 30.6122 73.7133 30.6889 73.8408 30.7155C73.9683 30.7421 74.101 30.7166 74.2099 30.6444L76.3023 29.253C76.3562 29.2171 76.4026 29.1707 76.4388 29.1166C76.475 29.0625 76.5004 29.0018 76.5134 28.9377C76.5264 28.8737 76.5269 28.8077 76.5147 28.7435C76.5026 28.6793 76.4781 28.6182 76.4426 28.5635C76.4072 28.5089 76.3614 28.4619 76.308 28.4253C76.2546 28.3886 76.1946 28.3629 76.1314 28.3497C76.0682 28.3365 76.0031 28.336 75.9397 28.3483C75.8764 28.3606 75.816 28.3854 75.7621 28.4214L73.6627 29.8128C73.555 29.8864 73.4804 30.0004 73.4554 30.1296C73.4305 30.2588 73.4571 30.3929 73.5294 30.5023Z" fill="white"/>
<path d="M75.0274 33.9035C75.0627 33.9582 75.1083 34.0054 75.1616 34.0423C75.215 34.0792 75.2749 34.105 75.3382 34.1184C75.4014 34.1318 75.4666 34.1324 75.53 34.1202C75.5934 34.108 75.6539 34.0833 75.7079 34.0474L79.861 31.2842C79.9149 31.2482 79.9613 31.2019 79.9975 31.1478C80.0338 31.0937 80.0591 31.0329 80.0721 30.9689C80.0852 30.9048 80.0856 30.8388 80.0735 30.7746C80.0613 30.7104 80.0368 30.6493 80.0014 30.5947C79.9659 30.5401 79.9202 30.4931 79.8668 30.4564C79.8134 30.4197 79.7534 30.394 79.6902 30.3808C79.627 30.3676 79.5618 30.3671 79.4985 30.3794C79.4351 30.3917 79.3748 30.4166 79.3209 30.4525L75.1694 33.214C75.061 33.2869 74.9853 33.4001 74.9587 33.5292C74.9321 33.6582 74.9568 33.7927 75.0274 33.9035Z" fill="white"/>
<path d="M72.1334 28.0767C72.1966 28.0905 72.262 28.0913 72.3255 28.0791C72.3891 28.0669 72.4496 28.0419 72.5035 28.0056L75.3553 26.0793C75.4092 26.0434 75.4555 25.997 75.4918 25.9429C75.528 25.8888 75.5533 25.828 75.5664 25.764C75.5794 25.7 75.5798 25.634 75.5677 25.5698C75.5556 25.5056 75.5311 25.4444 75.4956 25.3898C75.4601 25.3352 75.4144 25.2882 75.361 25.2515C75.3076 25.2148 75.2476 25.1892 75.1844 25.176C75.1212 25.1628 75.0561 25.1623 74.9927 25.1746C74.9293 25.1869 74.869 25.2117 74.8151 25.2477L71.965 27.1882C71.8832 27.2421 71.8191 27.3196 71.7811 27.4108C71.743 27.5019 71.7328 27.6025 71.7516 27.6996C71.7705 27.7967 71.8176 27.8858 71.8869 27.9555C71.9562 28.0253 72.0445 28.0724 72.1404 28.0909L72.1334 28.0767Z" fill="white"/>
<path d="M71.3213 29.9372L70.7022 30.3477C70.6213 30.4024 70.5582 30.4802 70.5209 30.5712C70.4836 30.6622 70.4736 30.7624 70.4924 30.8591C70.5112 30.9558 70.5577 31.0448 70.6263 31.1147C70.6948 31.1847 70.7823 31.2325 70.8776 31.2522C71.0054 31.2783 71.1382 31.2528 71.2477 31.1811L71.865 30.7688C71.9212 30.734 71.9699 30.6882 72.0083 30.634C72.0466 30.5798 72.0738 30.5183 72.0882 30.4532C72.1027 30.3882 72.104 30.3208 72.0922 30.2552C72.0805 30.1896 72.0558 30.127 72.0197 30.0713C71.9836 30.0155 71.9368 29.9677 71.8821 29.9306C71.8274 29.8935 71.7658 29.868 71.7012 29.8554C71.6365 29.8429 71.5701 29.8437 71.5057 29.8578C71.4414 29.8718 71.3804 29.8988 71.3266 29.9372H71.3213Z" fill="white"/>
<path d="M21.2219 20.8354C21.2167 20.8787 21.196 20.9186 21.1636 20.9474C21.1313 20.9763 21.0896 20.9921 21.0465 20.9917H16.739L14.8536 33.1447C14.8484 33.188 14.8277 33.2279 14.7953 33.2568C14.763 33.2856 14.7213 33.3014 14.6782 33.301H13.7609C13.6469 33.301 13.5855 33.2229 13.6101 33.1056L15.4937 20.9917H11.2248C11.1108 20.9917 11.0494 20.9136 11.074 20.7963L11.2055 19.9735C11.2107 19.9302 11.2314 19.8903 11.2638 19.8614C11.2961 19.8326 11.3378 19.8168 11.3809 19.8171H21.2044C21.3184 19.8171 21.3797 19.8953 21.3552 20.0126L21.2219 20.8354Z" fill="white"/>
<path d="M22.6005 33.1447C22.5953 33.188 22.5746 33.2279 22.5422 33.2568C22.5099 33.2856 22.4682 33.3014 22.4251 33.301H21.5482C21.4342 33.301 21.3728 33.2229 21.3973 33.1056L22.6408 25.07H21.7937C21.6797 25.07 21.6183 24.99 21.6429 24.8727L21.7744 24.0695C21.7796 24.0262 21.8003 23.9863 21.8327 23.9574C21.865 23.9286 21.9067 23.9128 21.9498 23.9131H23.8791C23.9913 23.9131 24.0545 23.9913 24.0299 24.1086L22.6005 33.1447ZM24.635 20.0801C24.635 20.7465 24.3158 21.0788 23.7686 21.0788C23.2775 21.0788 22.9951 20.8052 22.9951 20.3343C22.9951 19.707 23.3459 19.3551 23.872 19.3551C24.3789 19.3462 24.635 19.6199 24.635 20.0801Z" fill="white"/>
<path d="M31.1558 33.9283C31.2389 33.2945 31.384 32.6707 31.589 32.066C31.6644 31.8119 31.5136 31.8315 31.4014 31.9292C30.6279 32.8888 29.5914 33.4965 28.3479 33.4965C26.2432 33.4965 25.0874 32.1051 25.0874 29.7932C25.0874 27.2646 26.3309 23.7159 30.007 23.7159C30.8566 23.702 31.6976 23.8901 32.4625 24.265L33.6674 24.8336C33.7099 24.8479 33.7454 24.8782 33.7666 24.9182C33.7878 24.9582 33.7931 25.0048 33.7814 25.0486L31.8521 37.2798C31.8469 37.3231 31.8262 37.363 31.7938 37.3918C31.7615 37.4207 31.7198 37.4365 31.6767 37.4361H30.798C30.7739 37.4379 30.7497 37.4337 30.7275 37.4238C30.7054 37.4138 30.686 37.3985 30.6711 37.3792C30.6562 37.3599 30.6462 37.3371 30.642 37.313C30.6379 37.2888 30.6396 37.264 30.6472 37.2407L31.1558 33.9283ZM31.7784 25.3045C31.2117 25.0359 30.5941 24.8952 29.9684 24.8923C27.2552 24.8923 26.3116 27.8528 26.3116 29.7346C26.3116 31.3606 27.0851 32.3201 28.4987 32.3201C30.428 32.3201 31.703 30.5574 32.0608 28.2046L32.4572 25.6564L31.7784 25.3045Z" fill="white"/>
<path d="M41.5037 32.0074C41.4844 31.8119 41.3897 31.7924 41.2213 31.9487C40.8361 32.4388 40.3453 32.833 39.7866 33.1013C39.2279 33.3695 38.6159 33.5047 37.9977 33.4965C35.9053 33.4965 34.8688 32.0074 35.2459 29.6546L36.1228 24.0695C36.128 24.0262 36.1487 23.9863 36.1811 23.9574C36.2134 23.9286 36.2551 23.9128 36.2982 23.9131H37.1821C37.2063 23.9113 37.2305 23.9156 37.2526 23.9255C37.2748 23.9354 37.2942 23.9507 37.3091 23.97C37.324 23.9894 37.334 24.0121 37.3381 24.0363C37.3423 24.0605 37.3405 24.0853 37.333 24.1086L36.4806 29.6351C36.2158 31.341 36.8559 32.3201 38.2134 32.3201C40.1181 32.3201 41.4546 30.831 41.851 28.3414L42.5297 24.0766C42.5349 24.0333 42.5556 23.9934 42.588 23.9645C42.6203 23.9357 42.662 23.9199 42.7051 23.9202H43.5908C43.615 23.9184 43.6392 23.9227 43.6613 23.9326C43.6834 23.9425 43.7028 23.9578 43.7177 23.9772C43.7327 23.9965 43.7426 24.0192 43.7468 24.0434C43.751 24.0676 43.7492 24.0924 43.7416 24.1157L42.3473 33.1518C42.3421 33.1951 42.3214 33.235 42.2891 33.2639C42.2567 33.2927 42.215 33.3085 42.1719 33.3081H41.5668C41.4528 33.3081 41.3914 33.2495 41.416 33.1304L41.5037 32.0074Z" fill="white"/>
<path d="M46.027 29.7133C45.9884 31.341 46.818 32.3201 48.3824 32.3201C49.0064 32.3177 49.6273 32.2323 50.2293 32.066L50.8694 31.8883C50.9834 31.8492 51.0448 31.9079 51.0589 32.0252L51.1536 32.8284C51.1584 32.8501 51.1587 32.8727 51.1545 32.8946C51.1503 32.9165 51.1417 32.9373 51.1291 32.9557C51.1166 32.974 51.1005 32.9896 51.0817 33.0013C51.063 33.013 51.0421 33.0207 51.0203 33.0238L50.3801 33.2015C49.7184 33.396 49.0329 33.4947 48.3439 33.4947C46.0831 33.4947 44.801 32.0643 44.801 29.692C44.801 27.2432 46.1199 23.7141 49.6821 23.7141C51.6236 23.7141 52.7549 24.6364 52.7549 26.1646C52.7549 27.6342 51.8306 28.7519 49.6821 29.1055L46.027 29.7133ZM49.5505 28.0767C51.0781 27.8225 51.5306 27.0371 51.5306 26.3316C51.5306 25.4307 50.8291 24.91 49.6259 24.91C47.8352 24.91 46.5356 26.1646 46.0831 28.6542L49.5505 28.0767Z" fill="white"/>
<path d="M58.8039 23.9131C58.9179 23.9131 58.9793 23.9913 58.9547 24.1086L58.8232 24.9118C58.8184 24.9555 58.7979 24.9958 58.7655 25.025C58.7331 25.0542 58.6912 25.0702 58.6478 25.07H56.5239L55.5978 31.0265C55.4645 31.8705 55.7487 32.3201 56.3695 32.3201C56.5472 32.3131 56.7236 32.2869 56.8957 32.2419C56.9178 32.2307 56.9422 32.225 56.967 32.2251C56.9917 32.2252 57.016 32.2313 57.0381 32.2427C57.0601 32.2541 57.0791 32.2706 57.0937 32.2908C57.1083 32.3111 57.1179 32.3345 57.1219 32.3592L57.3289 33.07C57.3427 33.1142 57.341 33.1619 57.3241 33.205C57.3071 33.2481 57.276 33.2839 57.2359 33.3064C56.9173 33.4327 56.5784 33.499 56.2362 33.5018C54.8226 33.5018 54.1316 32.5813 54.3701 31.014L55.2944 25.0771H54.4455C54.3333 25.0771 54.2701 24.9971 54.2947 24.8798L54.4262 24.0766C54.4314 24.0333 54.4521 23.9934 54.4845 23.9645C54.5168 23.9357 54.5585 23.9199 54.6016 23.9202H55.4873L55.8381 21.5479C55.8574 21.4502 55.896 21.3916 55.9889 21.3702L56.9501 21.0557C57.0641 21.0166 57.1395 21.0966 57.1254 21.2334L56.7115 23.9185L58.8039 23.9131Z" fill="white"/>
<path d="M60.4438 29.7133C60.407 31.341 61.2366 32.3201 62.801 32.3201C63.4249 32.3176 64.0458 32.2321 64.6478 32.066L65.288 31.8883C65.402 31.8492 65.4634 31.9079 65.4774 32.0252L65.5704 32.8284C65.5755 32.85 65.5761 32.8725 65.5721 32.8944C65.5681 32.9163 65.5596 32.9372 65.5473 32.9556C65.5349 32.974 65.5188 32.9895 65.5002 33.0013C65.4815 33.0131 65.4606 33.0207 65.4388 33.0238L64.7987 33.2015C64.1369 33.3958 63.4514 33.4946 62.7624 33.4947C60.5017 33.4947 59.2196 32.0643 59.2196 29.692C59.2196 27.2432 60.5385 23.7141 64.1006 23.7141C66.0422 23.7141 67.1734 24.6364 67.1734 26.1646C67.1734 27.6342 66.2491 28.7519 64.1006 29.1055L60.4438 29.7133ZM63.9691 28.0678C65.495 27.8137 65.9475 27.0282 65.9475 26.3228C65.9475 25.4218 65.2459 24.9012 64.0445 24.9012C62.2538 24.9012 60.9542 26.1557 60.5017 28.6453L63.9691 28.0678Z" fill="white"/>
<path d="M104.552 27.46C104.552 29.9692 103.138 33.5161 99.2185 33.5161C96.6543 33.5161 95.1846 31.9878 95.1846 29.5178C95.1846 26.9696 96.6368 23.4618 100.537 23.4618C103.082 23.4564 104.552 24.99 104.552 27.46ZM98.1065 29.3028C98.1065 30.2428 98.5397 30.7724 99.3132 30.7724C100.971 30.7724 101.63 28.8177 101.63 27.6751C101.63 26.735 101.216 26.225 100.443 26.225C98.7274 26.225 98.1065 28.2046 98.1065 29.3028Z" fill="white"/>
<path d="M107.285 22.7172C107.7 20.2081 109.358 18.8078 111.771 18.8078C112.286 18.8004 112.797 18.8933 113.278 19.0815L113.693 19.2201C113.727 19.2273 113.759 19.243 113.786 19.2658C113.813 19.2885 113.834 19.3176 113.847 19.3505C113.86 19.3834 113.865 19.419 113.861 19.4543C113.857 19.4895 113.845 19.5232 113.825 19.5524L112.864 21.6297C112.854 21.6619 112.837 21.6916 112.815 21.7166C112.793 21.7417 112.766 21.7615 112.735 21.7747C112.704 21.7879 112.671 21.7942 112.638 21.7931C112.605 21.792 112.572 21.7835 112.543 21.7683L112.299 21.6883C112.101 21.6074 111.889 21.5675 111.676 21.5711C110.961 21.5711 110.375 22.1592 110.243 22.9429L110.112 23.6679H112.216C112.392 23.6679 112.46 23.7674 112.443 23.9434L112.073 26.1664C112.072 26.1999 112.064 26.2328 112.05 26.2631C112.036 26.2934 112.015 26.3205 111.991 26.3426C111.966 26.3648 111.937 26.3815 111.905 26.3919C111.874 26.4022 111.841 26.4059 111.808 26.4027H109.679L108.528 33.0647C108.527 33.0982 108.52 33.1312 108.506 33.1617C108.492 33.1921 108.473 33.2193 108.448 33.2415C108.423 33.2637 108.394 33.2805 108.363 33.2907C108.331 33.301 108.298 33.3045 108.265 33.3011H105.759C105.583 33.3011 105.513 33.2033 105.532 33.0256L106.664 26.4027H105.72C105.545 26.4027 105.475 26.3032 105.494 26.1273L105.845 23.9131C105.846 23.8797 105.853 23.8467 105.868 23.8164C105.882 23.7861 105.902 23.7591 105.927 23.7369C105.951 23.7148 105.98 23.698 106.012 23.6877C106.043 23.6773 106.077 23.6736 106.109 23.6768H107.107L107.285 22.7172Z" fill="white"/>
<path d="M117.971 33.2815C117.404 33.4302 116.822 33.509 116.236 33.5161C113.542 33.5161 112.129 31.9879 112.129 29.5374C112.129 26.911 113.523 23.4618 117.424 23.4618C119.592 23.4618 120.854 24.56 120.854 26.3423C120.854 27.8528 120.328 29.1464 117.499 29.5178L114.974 29.8537C115.031 30.3868 115.409 30.8719 116.312 30.8719C116.826 30.8719 117.339 30.8122 117.839 30.6942L118.932 30.4401C119.107 30.401 119.197 30.4792 119.214 30.6551L119.404 32.6969C119.41 32.73 119.41 32.7641 119.403 32.7972C119.396 32.8302 119.382 32.8614 119.363 32.8889C119.344 32.9164 119.319 32.9396 119.29 32.957C119.262 32.9744 119.23 32.9856 119.197 32.9901L117.971 33.2815ZM117.255 27.5773C117.82 27.4796 118.066 27.1668 118.066 26.7741C118.066 26.3228 117.839 26.1078 117.273 26.1078C116.37 26.1078 115.596 26.5591 115.124 27.8528L117.255 27.5773Z" fill="white"/>
<path d="M128.093 25.9905C128.091 26.0238 128.083 26.0565 128.069 26.0866C128.055 26.1167 128.035 26.1436 128.01 26.1655C127.985 26.1875 127.956 26.2041 127.925 26.2143C127.894 26.2246 127.861 26.2282 127.828 26.225C125.735 26.3032 124.906 27.5187 124.229 31.4583L123.964 33.0576C123.963 33.091 123.956 33.1239 123.942 33.1542C123.928 33.1845 123.908 33.2116 123.883 33.2338C123.858 33.2559 123.83 33.2727 123.798 33.2831C123.767 33.2934 123.734 33.2971 123.701 33.294H121.193C121.017 33.294 120.947 33.1962 120.967 33.0185L122.492 23.906C122.494 23.8727 122.501 23.84 122.515 23.8098C122.529 23.7796 122.549 23.7526 122.574 23.7305C122.598 23.7084 122.627 23.6916 122.659 23.6811C122.69 23.6707 122.723 23.6668 122.756 23.6697H124.076C124.141 23.6661 124.205 23.6832 124.259 23.7186C124.313 23.7541 124.355 23.806 124.378 23.8669L124.729 24.6311C124.841 24.8656 124.916 24.9438 125.181 24.6897C126.142 23.8012 126.935 23.4938 128.235 23.4547C128.422 23.4547 128.498 23.5524 128.459 23.7283L128.093 25.9905Z" fill="white"/>
<path d="M135.668 23.6768C135.843 23.6768 135.913 23.7763 135.894 23.9522L135.517 26.1664C135.516 26.1998 135.508 26.2327 135.494 26.263C135.481 26.2933 135.461 26.3203 135.436 26.3425C135.411 26.3647 135.382 26.3815 135.351 26.3918C135.32 26.4022 135.286 26.4059 135.254 26.4027H133.119L132.497 29.9692C132.402 30.4792 132.533 30.7724 132.847 30.7724C133.014 30.7782 133.181 30.7517 133.338 30.6942C133.367 30.6737 133.4 30.661 133.434 30.6571C133.469 30.6533 133.504 30.6585 133.536 30.6722C133.568 30.6859 133.596 30.7077 133.617 30.7355C133.638 30.7633 133.652 30.7962 133.658 30.831L134.224 32.7324C134.246 32.7947 134.244 32.863 134.22 32.9242C134.195 32.9854 134.149 33.0354 134.091 33.0647C133.562 33.3492 132.974 33.5038 132.376 33.5161C130.19 33.5161 129.115 32.2028 129.492 29.962L130.096 26.3956H129.154C128.978 26.3956 128.908 26.2961 128.927 26.1202L129.278 23.906C129.279 23.8725 129.287 23.8396 129.301 23.8093C129.315 23.779 129.335 23.7519 129.36 23.7298C129.385 23.7076 129.414 23.6909 129.445 23.6805C129.477 23.6702 129.51 23.6665 129.543 23.6697H130.541L130.892 21.5142C130.898 21.4529 130.923 21.3951 130.964 21.3494C131.004 21.3036 131.058 21.2723 131.118 21.2601L133.794 20.3716C133.984 20.3129 134.096 20.4124 134.059 20.6079L133.533 23.6643L135.668 23.6768Z" fill="white"/>
<path d="M142.264 32.4392C142.188 31.9683 142.113 31.8901 141.624 32.4197C141.315 32.7784 140.932 33.063 140.502 33.2526C140.071 33.4423 139.604 33.5323 139.135 33.5161C136.986 33.5161 135.724 32.1442 135.724 29.8128C135.724 27.0887 137.288 23.4618 141.473 23.4618C142.127 23.4747 142.778 23.5599 143.414 23.7159L145.468 24.1868C145.619 24.2259 145.675 24.3236 145.658 24.5013L144.205 33.0647C144.205 33.0981 144.197 33.131 144.183 33.1613C144.169 33.1916 144.149 33.2187 144.125 33.2409C144.1 33.263 144.071 33.2798 144.04 33.2902C144.008 33.3005 143.975 33.3042 143.942 33.3011H142.604C142.571 33.3042 142.538 33.3005 142.507 33.2902C142.475 33.2799 142.446 33.2631 142.421 33.241C142.396 33.2188 142.376 33.1917 142.362 33.1614C142.348 33.1311 142.34 33.0982 142.339 33.0647L142.264 32.4392ZM142.064 26.3228C141.832 26.2532 141.59 26.2203 141.348 26.225C139.444 26.225 138.653 28.4001 138.653 29.5374C138.653 30.3015 139.067 30.7724 139.745 30.7724C140.915 30.7724 141.818 29.3508 142.234 27.1278L142.366 26.4027L142.064 26.3228Z" fill="white"/>
<path d="M148.785 29.381C147.296 28.9883 146.58 28.2828 146.58 27.0709C146.58 25.3063 147.673 23.4636 150.633 23.4636C151.486 23.4813 152.334 23.6006 153.159 23.819L154.101 24.0731C154.136 24.0749 154.17 24.0862 154.199 24.1058C154.228 24.1254 154.252 24.1525 154.267 24.1845C154.282 24.2164 154.289 24.2519 154.286 24.2873C154.284 24.3227 154.272 24.3567 154.252 24.3858L153.347 26.4258C153.336 26.4575 153.319 26.4867 153.297 26.5118C153.275 26.5368 153.248 26.5572 153.218 26.5718C153.188 26.5863 153.156 26.5947 153.123 26.5965C153.09 26.5983 153.057 26.5934 153.026 26.5822L152.179 26.3459C151.642 26.2099 151.092 26.1313 150.539 26.1113C149.86 26.1113 149.464 26.3263 149.464 26.6995C149.464 26.8559 149.578 27.0122 149.841 27.0922L151.386 27.4831C152.875 27.8759 153.629 28.64 153.629 29.9336C153.629 31.5329 152.706 33.5196 149.595 33.5196C148.609 33.5254 147.627 33.4005 146.673 33.1482L145.673 32.8923C145.498 32.8337 145.447 32.7146 145.523 32.56L146.466 30.5805C146.475 30.5498 146.49 30.5212 146.511 30.4966C146.531 30.472 146.556 30.4518 146.584 30.4372C146.612 30.4226 146.643 30.4139 146.675 30.4117C146.706 30.4094 146.738 30.4136 146.768 30.4241L147.503 30.6196C148.22 30.7865 148.952 30.8782 149.688 30.8932C150.367 30.8932 150.763 30.6586 150.763 30.2268C150.763 30.0118 150.688 29.8554 150.311 29.7773L148.785 29.381Z" fill="white"/>
<path d="M154.38 32.6791C154.374 32.5456 154.396 32.4125 154.442 32.2875C154.489 32.1625 154.559 32.0482 154.65 31.9513C154.741 31.8544 154.85 31.7769 154.97 31.7234C155.091 31.6698 155.221 31.6413 155.353 31.6395C155.466 31.6358 155.579 31.6561 155.684 31.6992C155.789 31.7424 155.884 31.8073 155.962 31.8898C156.041 31.9724 156.102 32.0707 156.141 32.1785C156.179 32.2863 156.196 32.4011 156.188 32.5156C156.193 32.6503 156.171 32.7846 156.122 32.9099C156.073 33.0353 155.999 33.149 155.905 33.2438C155.81 33.3386 155.697 33.4124 155.573 33.4605C155.449 33.5086 155.316 33.5299 155.183 33.5232C155.074 33.5264 154.966 33.5065 154.865 33.4648C154.764 33.4231 154.673 33.3605 154.597 33.2811C154.521 33.2016 154.463 33.107 154.426 33.0033C154.388 32.8997 154.372 32.7892 154.38 32.6791Z" fill="white"/>
<path d="M160.567 33.2584C160.124 33.4469 159.645 33.5372 159.164 33.5232C157.949 33.5232 157.095 32.7697 157.095 31.4867C157.095 29.7097 158.431 28.3325 160.299 28.3325C160.641 28.3302 160.98 28.3848 161.304 28.4942L160.943 29.6244C160.732 29.5381 160.507 29.4964 160.28 29.5018C159.255 29.5018 158.612 30.3903 158.612 31.325C158.612 32.0074 159.043 32.3521 159.576 32.3521C159.912 32.3516 160.243 32.2827 160.552 32.1495L160.567 33.2584Z" fill="white"/>
<path d="M166.395 30.3867C166.395 32.2082 165.159 33.5427 163.461 33.5427C162.216 33.5427 161.381 32.7182 161.381 31.4761C161.381 29.7559 162.567 28.3308 164.315 28.3308C165.631 28.3219 166.395 29.2388 166.395 30.3867ZM162.879 31.4529C162.879 32.0323 163.16 32.4196 163.672 32.4196C164.445 32.4196 164.899 31.2379 164.899 30.3939C164.899 29.9354 164.699 29.4467 164.126 29.4467C163.286 29.4414 162.879 30.6728 162.879 31.4529Z" fill="white"/>
<path d="M166.827 33.4219L167.439 30.0634C167.549 29.4307 167.63 28.8923 167.69 28.4445H168.918L168.826 29.2477H168.847C169.031 28.964 169.281 28.7309 169.576 28.5694C169.87 28.4078 170.2 28.3228 170.535 28.3219C171.319 28.3219 171.661 28.8301 171.701 29.269C171.884 28.9808 172.135 28.7433 172.432 28.5779C172.728 28.4126 173.06 28.3246 173.399 28.3219C174.151 28.3219 174.593 28.8212 174.593 29.6653C174.584 29.9517 174.557 30.2371 174.512 30.5201L173.986 33.4219H172.583L173.076 30.6942C173.119 30.4969 173.143 30.2957 173.146 30.0936C173.146 29.7471 172.995 29.5018 172.664 29.5018C172.181 29.5018 171.699 30.154 171.508 31.1615L171.096 33.4219H169.693L170.205 30.6835C170.238 30.495 170.258 30.3044 170.264 30.1131C170.264 29.7577 170.156 29.5018 169.803 29.5018C169.31 29.5018 168.788 30.1949 168.618 31.1829L168.216 33.4219H166.827Z" fill="white"/>
</svg>
