<svg width="30" height="29" viewBox="0 0 30 29" fill="none" xmlns="http://www.w3.org/2000/svg">
<path d="M29.2326 24.5116C29.2326 25.5602 28.816 26.5657 28.0746 27.3072C27.3332 28.0486 26.3276 28.4651 25.2791 28.4651H4.72094C3.67241 28.4651 2.66683 28.0486 1.92541 27.3072C1.18398 26.5657 0.767456 25.5602 0.767456 24.5116V3.95349C0.767456 2.90496 1.18398 1.89937 1.92541 1.15795C2.66683 0.416527 3.67241 0 4.72094 0H25.2791C26.3276 0 27.3332 0.416527 28.0746 1.15795C28.816 1.89937 29.2326 2.90496 29.2326 3.95349V24.5116Z" fill="#FF722E"/>
<path fill-rule="evenodd" clip-rule="evenodd" d="M15 5C12.5556 5 12.2496 5.0102 11.2896 5.054C10.3314 5.0978 9.6768 5.2502 9.1044 5.4728C8.5044 5.6984 7.9602 6.0524 7.5102 6.5108C7.05253 6.96028 6.69831 7.5041 6.4722 8.1044C6.2508 8.6768 6.0978 9.332 6.054 10.2902C6.0108 11.2496 6 11.555 6 14C6 16.445 6.0102 16.7504 6.054 17.7104C6.0978 18.6686 6.2502 19.3232 6.4728 19.8956C6.6984 20.4956 7.0524 21.0398 7.5108 21.4898C7.96029 21.9475 8.50411 22.3017 9.1044 22.5278C9.6768 22.7498 10.3314 22.9022 11.2896 22.946C12.2496 22.9898 12.5556 23 15 23C17.4444 23 17.7504 22.9898 18.7104 22.946C19.6686 22.9022 20.3232 22.7498 20.8956 22.5272C21.4956 22.3016 22.0398 21.9476 22.4898 21.4892C22.9475 21.0397 23.3017 20.4959 23.5278 19.8956C23.7498 19.3232 23.9022 18.6686 23.946 17.7104C23.9898 16.7504 24 16.4444 24 14C24 11.5556 23.9898 11.2496 23.946 10.2896C23.9022 9.3314 23.7498 8.6768 23.5272 8.1044C23.3012 7.50384 22.947 6.95979 22.4892 6.5102C22.0397 6.05253 21.4959 5.69831 20.8956 5.4722C20.3232 5.2508 19.668 5.0978 18.7098 5.054C17.7504 5.0108 17.445 5 15 5ZM15 6.6218C17.403 6.6218 17.688 6.6308 18.6372 6.674C19.5144 6.7142 19.9908 6.86 20.3082 6.9842C20.7282 7.1468 21.0282 7.3424 21.3432 7.6568C21.6582 7.9718 21.8532 8.2718 22.0158 8.6918C22.1394 9.0092 22.2858 9.4856 22.326 10.3628C22.3692 11.312 22.3782 11.597 22.3782 14C22.3782 16.403 22.3692 16.688 22.326 17.6372C22.2858 18.5144 22.14 18.9908 22.0158 19.3082C21.8718 19.6991 21.6419 20.0528 21.3432 20.3432C21.0528 20.642 20.6992 20.8718 20.3082 21.0158C19.9908 21.1394 19.5144 21.2858 18.6372 21.326C17.688 21.3692 17.4036 21.3782 15 21.3782C12.5964 21.3782 12.312 21.3692 11.3628 21.326C10.4856 21.2858 10.0092 21.14 9.6918 21.0158C9.30087 20.8718 8.9472 20.6419 8.6568 20.3432C8.35811 20.0528 8.12828 19.6991 7.9842 19.3082C7.8606 18.9908 7.7142 18.5144 7.674 17.6372C7.6308 16.688 7.6218 16.403 7.6218 14C7.6218 11.597 7.6308 11.312 7.674 10.3628C7.7142 9.4856 7.86 9.0092 7.9842 8.6918C8.1468 8.2718 8.3424 7.9718 8.6568 7.6568C8.94716 7.35803 9.30085 7.12819 9.6918 6.9842C10.0092 6.8606 10.4856 6.7142 11.3628 6.674C12.312 6.6308 12.597 6.6218 15 6.6218Z" fill="white"/>
<path fill-rule="evenodd" clip-rule="evenodd" d="M15 17.003C14.6057 17.003 14.2152 16.9253 13.8508 16.7744C13.4865 16.6235 13.1554 16.4023 12.8766 16.1234C12.5977 15.8446 12.3765 15.5135 12.2256 15.1492C12.0747 14.7848 11.997 14.3943 11.997 14C11.997 13.6056 12.0747 13.2151 12.2256 12.8508C12.3765 12.4864 12.5977 12.1554 12.8766 11.8765C13.1554 11.5977 13.4865 11.3765 13.8508 11.2256C14.2152 11.0746 14.6057 10.997 15 10.997C15.7965 10.997 16.5603 11.3134 17.1235 11.8765C17.6866 12.4397 18.003 13.2035 18.003 14C18.003 14.7964 17.6866 15.5602 17.1235 16.1234C16.5603 16.6866 15.7965 17.003 15 17.003ZM15 9.37397C13.7731 9.37397 12.5965 9.86135 11.7289 10.7289C10.8614 11.5964 10.374 12.7731 10.374 14C10.374 15.2269 10.8614 16.4035 11.7289 17.271C12.5965 18.1386 13.7731 18.626 15 18.626C16.2269 18.626 17.4036 18.1386 18.2711 17.271C19.1386 16.4035 19.626 15.2269 19.626 14C19.626 12.7731 19.1386 11.5964 18.2711 10.7289C17.4036 9.86135 16.2269 9.37397 15 9.37397ZM20.9718 9.28997C20.9718 9.57999 20.8566 9.85812 20.6515 10.0632C20.4465 10.2683 20.1683 10.3835 19.8783 10.3835C19.5883 10.3835 19.3102 10.2683 19.1051 10.0632C18.9 9.85812 18.7848 9.57999 18.7848 9.28997C18.7848 8.99996 18.9 8.72182 19.1051 8.51675C19.3102 8.31168 19.5883 8.19647 19.8783 8.19647C20.1683 8.19647 20.4465 8.31168 20.6515 8.51675C20.8566 8.72182 20.9718 8.99996 20.9718 9.28997Z" fill="white"/>
</svg>
